<?xml version="1.0" encoding="UTF-8"?>
<svg version="1.1" xmlns="http://www.w3.org/2000/svg" width="250" height="250">
<path d="M0 0 C25.30118176 21.78949967 43.2979461 50.8714353 45.89746094 84.83105469 C47.51167199 121.32200756 39.01283612 153.28262133 14.46386719 180.99511719 C12.99094252 182.5842589 11.51214678 184.16798768 10.02636719 185.74511719 C9.42695313 186.40898437 8.82753906 187.07285156 8.20996094 187.75683594 C-13.75546272 211.14550519 -45.28773272 222.10112344 -76.78051758 223.09643555 C-111.67658749 223.47324939 -142.01014713 210.81459374 -166.97363281 186.74511719 C-167.82699219 185.96652344 -168.68035156 185.18792969 -169.55957031 184.38574219 C-191.15639058 164.08336856 -203.28044466 134.07441486 -204.18847656 104.73730469 C-204.69680805 79.22694216 -200.36529238 57.11808857 -187.97363281 34.74511719 C-187.44125 33.78089844 -186.90886719 32.81667969 -186.36035156 31.82324219 C-170.17655396 4.67622685 -142.41746389 -15.74234444 -111.99365234 -23.77783203 C-72.98972376 -33.37773216 -31.13882328 -25.77898671 0 0 Z " fill="#007ACC" transform="translate(203.9736328125,27.2548828125)"/>
<path d="M0 0 C25.30118176 21.78949967 43.2979461 50.8714353 45.89746094 84.83105469 C47.51167199 121.32200756 39.01283612 153.28262133 14.46386719 180.99511719 C12.99094252 182.5842589 11.51214678 184.16798768 10.02636719 185.74511719 C9.42695313 186.40898437 8.82753906 187.07285156 8.20996094 187.75683594 C-13.75546272 211.14550519 -45.28773272 222.10112344 -76.78051758 223.09643555 C-111.67658749 223.47324939 -142.01014713 210.81459374 -166.97363281 186.74511719 C-167.82699219 185.96652344 -168.68035156 185.18792969 -169.55957031 184.38574219 C-191.15639058 164.08336856 -203.28044466 134.07441486 -204.18847656 104.73730469 C-204.69680805 79.22694216 -200.36529238 57.11808857 -187.97363281 34.74511719 C-187.44125 33.78089844 -186.90886719 32.81667969 -186.36035156 31.82324219 C-170.17655396 4.67622685 -142.41746389 -15.74234444 -111.99365234 -23.77783203 C-72.98972376 -33.37773216 -31.13882328 -25.77898671 0 0 Z M-149.69628906 40.87792969 C-165.06467908 60.2268118 -170.7074553 82.77068131 -168.69238281 107.14746094 C-166.26129628 126.05850908 -158.77273948 142.57089988 -145.97363281 156.74511719 C-145.2246875 157.58816406 -144.47574219 158.43121094 -143.70410156 159.29980469 C-133.50690676 170.15651956 -120.97159057 177.80178246 -106.97363281 182.74511719 C-105.56210938 183.25365234 -105.56210938 183.25365234 -104.12207031 183.77246094 C-96.4445062 186.01778629 -88.80013535 186.01856266 -80.84863281 186.05761719 C-79.20362793 186.06607666 -79.20362793 186.06607666 -77.52539062 186.07470703 C-52.99544175 185.8570729 -33.13941794 176.70532405 -15.97363281 159.74511719 C-15.31878906 159.16246094 -14.66394531 158.57980469 -13.98925781 157.97949219 C-0.52406804 145.74964092 9.00397731 124.23277478 10.1875 106.30419922 C10.63650236 79.02469507 5.31004663 56.1138464 -13.87988281 35.90527344 C-14.57082031 35.19242188 -15.26175781 34.47957031 -15.97363281 33.74511719 C-16.76253906 32.84599609 -16.76253906 32.84599609 -17.56738281 31.92871094 C-31.25587213 16.87835661 -51.69725958 8.77049636 -71.63916016 7.58691406 C-103.60062685 6.26937587 -128.59558425 16.73352516 -149.69628906 40.87792969 Z " fill="#F8F8F8" transform="translate(203.9736328125,27.2548828125)"/>
<path d="M0 0 C12.9762419 10.59285053 25.08519965 22.55691787 30.296875 38.875 C25.63550155 40.73074144 20.97239775 42.58203891 16.30761719 44.42919922 C14.72021632 45.05850652 13.13329941 45.68903596 11.546875 46.32080078 C9.26948467 47.22748681 6.99040299 48.12979598 4.7109375 49.03125 C3.64366928 49.4577887 3.64366928 49.4577887 2.55484009 49.89294434 C-2.47538159 51.875 -2.47538159 51.875 -4.703125 51.875 C-4.4246875 50.9159375 -4.4246875 50.9159375 -4.140625 49.9375 C-3.99625 49.256875 -3.851875 48.57625 -3.703125 47.875 C-4.71622746 46.63327938 -4.71622746 46.63327938 -6.8125 46.8125 C-7.68390625 46.833125 -8.5553125 46.85375 -9.453125 46.875 C-12.45079484 46.93043344 -14.61953029 46.89914958 -17.515625 46.0625 C-18.5984375 45.9696875 -18.5984375 45.9696875 -19.703125 45.875 C-21.39023923 47.5209651 -23.0576872 49.18737149 -24.703125 50.875 C-26.828125 50.6875 -26.828125 50.6875 -28.703125 49.875 C-29.693125 49.875 -30.683125 49.875 -31.703125 49.875 C-33.65536515 52.12713247 -35.43867386 54.35839647 -37.203125 56.75 C-38.16775732 58.04214674 -39.1363688 59.33133462 -40.109375 60.6171875 C-40.53541016 61.1932373 -40.96144531 61.76928711 -41.40039062 62.36279297 C-42.703125 63.875 -42.703125 63.875 -45.703125 65.875 C-48.33213788 64.35293991 -50.54678464 63.03134036 -52.703125 60.875 C-51.383125 60.215 -50.063125 59.555 -48.703125 58.875 C-47.383125 59.865 -46.063125 60.855 -44.703125 61.875 C-45.033125 59.895 -45.363125 57.915 -45.703125 55.875 C-44.713125 55.215 -43.723125 54.555 -42.703125 53.875 C-44.353125 53.545 -46.003125 53.215 -47.703125 52.875 C-48.033125 51.225 -48.363125 49.575 -48.703125 47.875 C-49.363125 47.875 -50.023125 47.875 -50.703125 47.875 C-51.033125 49.525 -51.363125 51.175 -51.703125 52.875 C-53.353125 53.205 -55.003125 53.535 -56.703125 53.875 C-55.218125 54.865 -55.218125 54.865 -53.703125 55.875 C-53.41015625 58.0390625 -53.41015625 58.0390625 -53.515625 60.5 C-53.55623047 61.72589844 -53.55623047 61.72589844 -53.59765625 62.9765625 C-53.63246094 63.60304688 -53.66726562 64.22953125 -53.703125 64.875 C-54.775625 64.235625 -55.848125 63.59625 -56.953125 62.9375 C-59.51134682 61.46898727 -61.75653386 60.34645458 -64.703125 59.875 C-65.033125 60.535 -65.363125 61.195 -65.703125 61.875 C-67.18563055 60.5871669 -68.66403318 59.29460936 -70.140625 58 C-70.96433594 57.28070313 -71.78804687 56.56140625 -72.63671875 55.8203125 C-74.703125 53.875 -74.703125 53.875 -75.703125 51.875 C-76.63125 51.91625 -77.559375 51.9575 -78.515625 52 C-81.703125 51.875 -81.703125 51.875 -84.703125 49.875 C-85.899375 49.9265625 -87.095625 49.978125 -88.328125 50.03125 C-93.59868923 50.15628163 -97.22743101 47.94422496 -101.703125 45.375 C-103.3662159 44.45657176 -105.03029757 43.53993555 -106.6953125 42.625 C-107.52643555 42.16351563 -108.35755859 41.70203125 -109.21386719 41.2265625 C-113.6952956 38.79333499 -118.29096263 36.58832102 -122.890625 34.38867188 C-127.59571787 32.08981426 -127.59571787 32.08981426 -128.703125 29.875 C-119.77466683 10.9494265 -100.66679603 -3.47049895 -81.703125 -11.125 C-55.31681527 -20.48519619 -22.57684047 -16.97051096 0 0 Z " fill="#FCEC00" transform="translate(175.703125,52.125)"/>
<path d="M0 0 C1.01171875 1.75 1.01171875 1.75 1.6875 4 C2.03361328 5.0828125 2.03361328 5.0828125 2.38671875 6.1875 C7.49782567 29.62697123 4.35120192 54.02147371 -7.6875 74.6875 C-12.08414674 81.51740544 -17.28150146 87.27326155 -23 93 C-23.72960937 93.74121094 -24.45921875 94.48242188 -25.2109375 95.24609375 C-38.99804975 108.39254093 -59.71276572 116.99187249 -78.75 117.125 C-79.8225 117.08375 -80.895 117.0425 -82 117 C-82.4585351 107.84628076 -81.48118341 99.26488067 -79.97924805 90.24926758 C-78.89925878 84.08192575 -78.89925878 84.08192575 -80 78 C-80.66 77.34 -81.32 76.68 -82 76 C-82 75.01 -82 74.02 -82 73 C-78.37 73 -74.74 73 -71 73 C-70.67 75.31 -70.34 77.62 -70 80 C-71.65 80 -73.3 80 -75 80 C-74.34 81.32 -73.68 82.64 -73 84 C-70.62625139 84.33425735 -70.62625139 84.33425735 -68 84 C-66.15684329 82.0995533 -66.15684329 82.0995533 -65 80 C-66.32 80 -67.64 80 -69 80 C-68.67 77.69 -68.34 75.38 -68 73 C-74.33023697 70.38601433 -74.33023697 70.38601433 -81 71 C-81.33 68.69 -81.66 66.38 -82 64 C-81.15236084 63.58488159 -81.15236084 63.58488159 -80.28759766 63.16137695 C-77.72491799 61.89479849 -75.17516802 60.60407216 -72.625 59.3125 C-71.73554688 58.87744141 -70.84609375 58.44238281 -69.9296875 57.99414062 C-68.65351563 57.34155273 -68.65351563 57.34155273 -67.3515625 56.67578125 C-66.56604004 56.28302002 -65.78051758 55.89025879 -64.97119141 55.4855957 C-62.47064264 53.60104787 -61.8863176 51.96510336 -61 49 C-60.86377057 47.44122091 -60.78102968 45.87691294 -60.75 44.3125 C-60.00830117 35.56826121 -54.11584914 28.03019299 -48 22 C-47.01 21.34 -46.02 20.68 -45 20 C-44.95270752 19.2167334 -44.90541504 18.4334668 -44.85668945 17.62646484 C-44 15 -44 15 -42.39706421 13.93292236 C-40.05981323 12.84627822 -37.70101545 11.89600031 -35.29296875 10.9765625 C-34.41602859 10.62612885 -33.53908844 10.27569519 -32.63557434 9.91464233 C-30.77892308 9.17761714 -28.91839927 8.45028477 -27.05444336 7.73193359 C-24.20025234 6.62992371 -21.3606799 5.49548048 -18.52148438 4.35546875 C-16.71691813 3.64387172 -14.91160232 2.93417199 -13.10546875 2.2265625 C-12.25429977 1.88710602 -11.4031308 1.54764954 -10.52616882 1.19790649 C-9.33021843 0.74150284 -9.33021843 0.74150284 -8.11010742 0.27587891 C-7.41141037 0.00450104 -6.71271332 -0.26687683 -5.99284363 -0.54647827 C-3.62639815 -1.08502251 -2.25547035 -0.86045524 0 0 Z " fill="#E10101" transform="translate(208,95)"/>
<path d="M0 0 C9.9735126 8.39534329 17.51490099 17.22588089 24.01171875 28.53515625 C24.51445312 29.39882812 25.0171875 30.2625 25.53515625 31.15234375 C35.71303692 49.96600195 37.18373512 74.65612319 31.20703125 95.03125 C25.87403872 110.6642379 18.46295257 122.79293443 7.01171875 134.53515625 C6.42777344 135.19257813 5.84382812 135.85 5.2421875 136.52734375 C-7.39284702 150.409888 -28.41404857 158.7645562 -46.80078125 159.67431641 C-74.66215096 160.56697077 -95.75399913 154.80689302 -116.85546875 135.9765625 C-132.78669745 120.77349245 -144.16495489 99.90218909 -144.98828125 77.53515625 C-145.03984375 76.2821875 -145.09140625 75.02921875 -145.14453125 73.73828125 C-145.83265875 49.02256139 -137.29685391 26.84206769 -120.41381836 8.87133789 C-88.17333149 -23.9968886 -36.83700843 -28.84361836 0 0 Z M-121.42578125 12.03515625 C-125.90068963 17.1609604 -129.56071526 22.66743567 -132.98828125 28.53515625 C-130.21217259 31.84411223 -126.51817308 33.57979615 -122.7578125 35.546875 C-122.04856125 35.91996292 -121.33931 36.29305084 -120.60856628 36.67744446 C-119.10814492 37.46304511 -117.60600856 38.24537779 -116.10229492 39.0246582 C-113.81803248 40.21367653 -111.54696802 41.42563624 -109.27539062 42.63867188 C-107.81195424 43.40119288 -106.34778359 44.16230666 -104.8828125 44.921875 C-104.21167923 45.28431808 -103.54054596 45.64676117 -102.84907532 46.02018738 C-97.94330579 48.51433811 -94.46266027 48.68457919 -88.98828125 48.53515625 C-87.99828125 49.19515625 -87.00828125 49.85515625 -85.98828125 50.53515625 C-85.08078125 50.41140625 -84.17328125 50.28765625 -83.23828125 50.16015625 C-79.28601541 50.61618692 -78.84554722 51.44848269 -76.36328125 54.41015625 C-75.81414062 55.12945312 -75.265 55.84875 -74.69921875 56.58984375 C-72.91750433 58.61562864 -71.45805234 59.51057872 -68.98828125 60.53515625 C-68.98828125 59.87515625 -68.98828125 59.21515625 -68.98828125 58.53515625 C-67.71568614 58.98857493 -66.44526882 59.44810852 -65.17578125 59.91015625 C-64.46808594 60.16539063 -63.76039062 60.420625 -63.03125 60.68359375 C-60.98828125 61.53515625 -60.98828125 61.53515625 -57.98828125 63.53515625 C-57.90731322 62.07773162 -57.84910351 60.61902818 -57.80078125 59.16015625 C-57.76597656 58.34804687 -57.73117188 57.5359375 -57.6953125 56.69921875 C-57.79199219 55.98507813 -57.88867188 55.2709375 -57.98828125 54.53515625 C-59.47328125 53.54515625 -59.47328125 53.54515625 -60.98828125 52.53515625 C-59.33828125 52.20515625 -57.68828125 51.87515625 -55.98828125 51.53515625 C-55.65828125 49.88515625 -55.32828125 48.23515625 -54.98828125 46.53515625 C-54.32828125 46.53515625 -53.66828125 46.53515625 -52.98828125 46.53515625 C-52.65828125 48.18515625 -52.32828125 49.83515625 -51.98828125 51.53515625 C-50.33828125 51.86515625 -48.68828125 52.19515625 -46.98828125 52.53515625 C-47.97828125 53.19515625 -48.96828125 53.85515625 -49.98828125 54.53515625 C-49.65828125 56.51515625 -49.32828125 58.49515625 -48.98828125 60.53515625 C-50.63828125 59.54515625 -52.28828125 58.55515625 -53.98828125 57.53515625 C-54.97828125 58.52515625 -55.96828125 59.51515625 -56.98828125 60.53515625 C-52.72455315 62.89425978 -52.72455315 62.89425978 -47.98828125 63.53515625 C-46.03575732 61.47383204 -44.25803622 59.43132923 -42.48828125 57.22265625 C-41.52065273 56.03814548 -40.55193509 54.85452341 -39.58203125 53.671875 C-39.15599609 53.14295654 -38.72996094 52.61403809 -38.29101562 52.0690918 C-36.93257941 50.46956879 -35.49054719 48.99931727 -33.98828125 47.53515625 C-33.32828125 48.19515625 -32.66828125 48.85515625 -31.98828125 49.53515625 C-30.02071673 49.50392682 -30.02071673 49.50392682 -27.98828125 48.53515625 C-27.41078125 47.83390625 -26.83328125 47.13265625 -26.23828125 46.41015625 C-23.98828125 44.53515625 -23.98828125 44.53515625 -20.17578125 44.78515625 C-19.14517578 44.97658203 -19.14517578 44.97658203 -18.09375 45.171875 C-15.03144473 45.70025049 -12.08962349 45.59976755 -8.98828125 45.53515625 C-8.98828125 47.20182292 -8.98828125 48.86848958 -8.98828125 50.53515625 C-1.0452798 48.35448216 6.51464175 45.45409577 14.13671875 42.34765625 C15.28398437 41.88423828 16.43125 41.42082031 17.61328125 40.94335938 C20.41439 39.81124459 23.21379357 38.67511091 26.01171875 37.53515625 C24.52657842 32.84403125 22.63321408 28.89443381 19.94921875 24.78515625 C19.5514624 24.17389893 19.15370605 23.5626416 18.74389648 22.93286133 C14.99920791 17.30808694 10.78834511 12.31990613 6.01171875 7.53515625 C5.25375 6.76558594 4.49578125 5.99601562 3.71484375 5.203125 C-14.64241778 -12.4042484 -37.60371543 -17.15724096 -62.26171875 -16.76953125 C-85.75760992 -15.97694613 -105.45969638 -4.84602851 -121.42578125 12.03515625 Z M-134.98828125 32.53515625 C-145.37052734 54.20245243 -145.62225246 78.6894518 -138.16796875 101.3515625 C-130.07519264 123.19133909 -113.46322869 140.65321021 -92.61328125 150.84765625 C-81.22710447 155.77252067 -70.40422981 158.28890692 -57.98828125 157.53515625 C-57.78823837 148.2553895 -57.93644132 139.46391122 -59.53125 130.28515625 C-60.09732705 126.87901741 -60.36168038 123.97042823 -59.98828125 120.53515625 C-58.48828125 118.78515625 -58.48828125 118.78515625 -56.98828125 117.53515625 C-56.98828125 116.54515625 -56.98828125 115.55515625 -56.98828125 114.53515625 C-62.43328125 114.04015625 -62.43328125 114.04015625 -67.98828125 113.53515625 C-62.63384096 111.39338013 -61.95478907 111.45615298 -56.98828125 113.53515625 C-57.26671875 112.42140625 -57.26671875 112.42140625 -57.55078125 111.28515625 C-57.98828125 108.53515625 -57.98828125 108.53515625 -57.38891602 106.55712891 C-56.68028374 104.21693441 -56.68028374 104.21693441 -59.015625 101.43359375 C-59.97282125 100.24861371 -60.9437718 99.07465605 -61.92578125 97.91015625 C-62.42996582 97.29277588 -62.93415039 96.67539551 -63.45361328 96.03930664 C-64.47620043 94.78776511 -65.50353008 93.540083 -66.53564453 92.29638672 C-68.52134997 89.88884402 -70.43869962 87.42917599 -72.36328125 84.97265625 C-74.36727022 82.46359689 -76.31039912 80.22070786 -78.61328125 77.97265625 C-83.46837892 72.98979286 -86.72155074 67.10264192 -89.80078125 60.91015625 C-95.56503146 50.28324368 -106.61742921 45.78643669 -116.98828125 40.53515625 C-118.47272639 39.7735742 -119.9571003 39.01185329 -121.44140625 38.25 C-122.89397243 37.51061987 -124.34708377 36.77230964 -125.80078125 36.03515625 C-126.48857666 35.68461182 -127.17637207 35.33406738 -127.88500977 34.97290039 C-131.26966018 33.14987557 -131.26966018 33.14987557 -134.98828125 32.53515625 Z M20.03100586 41.90869141 C18.83978371 42.36014023 18.83978371 42.36014023 17.62449646 42.82070923 C16.34470665 43.31744644 16.34470665 43.31744644 15.0390625 43.82421875 C14.16020889 44.16512543 13.28135529 44.5060321 12.37586975 44.85726929 C10.51780112 45.58214636 8.66101307 46.31031318 6.80541992 47.04150391 C4.90335539 47.78646157 2.99738719 48.52152904 1.08764648 49.24658203 C-1.6667255 50.29240159 -4.40812521 51.36717694 -7.1484375 52.44921875 C-8.00365494 52.76823151 -8.85887238 53.08724426 -9.74000549 53.41592407 C-14.65618369 55.30667075 -14.65618369 55.30667075 -17.37280273 59.65380859 C-17.57591064 60.60465332 -17.77901855 61.55549805 -17.98828125 62.53515625 C-19.39604185 63.6810079 -20.8087411 64.82221239 -22.26171875 65.91015625 C-29.52894636 72.74989988 -32.12560174 80.97062747 -33.29296875 90.46875 C-34.04353011 93.77880993 -34.49757512 94.42021087 -36.98828125 96.53515625 C-38.8894043 97.7019043 -38.8894043 97.7019043 -41 98.796875 C-41.75732422 99.19326172 -42.51464844 99.58964844 -43.29492188 99.99804688 C-44.08060547 100.40216797 -44.86628906 100.80628906 -45.67578125 101.22265625 C-46.47306641 101.63837891 -47.27035156 102.05410156 -48.09179688 102.48242188 C-50.05474582 103.505036 -52.02023687 104.52239305 -53.98828125 105.53515625 C-53.65828125 107.84515625 -53.32828125 110.15515625 -52.98828125 112.53515625 C-52.10140625 112.30828125 -51.21453125 112.08140625 -50.30078125 111.84765625 C-46.37283781 111.47709555 -45.15217777 112.33800589 -41.98828125 114.53515625 C-41.32828125 114.53515625 -40.66828125 114.53515625 -39.98828125 114.53515625 C-40.31828125 116.84515625 -40.64828125 119.15515625 -40.98828125 121.53515625 C-39.66828125 121.53515625 -38.34828125 121.53515625 -36.98828125 121.53515625 C-38.17578125 123.53515625 -38.17578125 123.53515625 -39.98828125 125.53515625 C-42.67578125 125.78515625 -42.67578125 125.78515625 -44.98828125 125.53515625 C-45.64828125 124.21515625 -46.30828125 122.89515625 -46.98828125 121.53515625 C-45.33828125 121.53515625 -43.68828125 121.53515625 -41.98828125 121.53515625 C-41.83678827 117.90630301 -41.83678827 117.90630301 -42.98828125 114.53515625 C-46.61828125 114.53515625 -50.24828125 114.53515625 -53.98828125 114.53515625 C-53.35986152 118.50657315 -53.35986152 118.50657315 -50.98828125 120.53515625 C-51.14537995 123.48446211 -51.41287085 126.3028756 -51.80078125 129.22265625 C-51.89681641 130.01349609 -51.99285156 130.80433594 -52.09179688 131.61914062 C-52.52641713 135.15152407 -53.00888177 138.66694314 -53.55859375 142.18359375 C-54.00351805 145.65400326 -54.08683016 148.97591194 -54.05078125 152.47265625 C-54.04175781 153.61605469 -54.03273438 154.75945312 -54.0234375 155.9375 C-54.01183594 156.79472656 -54.00023438 157.65195313 -53.98828125 158.53515625 C-31.86433101 158.95120399 -11.4953985 150.06034971 4.54296875 134.9609375 C5.35765625 134.16042969 6.17234375 133.35992187 7.01171875 132.53515625 C8.2646875 131.31892578 8.2646875 131.31892578 9.54296875 130.078125 C26.41300383 112.71344383 32.35297723 91.77019177 32.24829102 68.0559082 C32.13533948 53.69574554 32.13533948 53.69574554 27.01171875 40.53515625 C24.1141362 40.53515625 22.67927437 40.89878813 20.03100586 41.90869141 Z " fill="#040704" transform="translate(179.98828125,53.46484375)"/>
<path d="M0 0 C25.30118176 21.78949967 43.2979461 50.8714353 45.89746094 84.83105469 C47.51167199 121.32200756 39.01283612 153.28262133 14.46386719 180.99511719 C12.99094252 182.5842589 11.51214678 184.16798768 10.02636719 185.74511719 C9.42695313 186.40898437 8.82753906 187.07285156 8.20996094 187.75683594 C-13.75546272 211.14550519 -45.28773272 222.10112344 -76.78051758 223.09643555 C-111.67658749 223.47324939 -142.01014713 210.81459374 -166.97363281 186.74511719 C-167.82699219 185.96652344 -168.68035156 185.18792969 -169.55957031 184.38574219 C-191.15639058 164.08336856 -203.28044466 134.07441486 -204.18847656 104.73730469 C-204.69680805 79.22694216 -200.36529238 57.11808857 -187.97363281 34.74511719 C-187.44125 33.78089844 -186.90886719 32.81667969 -186.36035156 31.82324219 C-170.17655396 4.67622685 -142.41746389 -15.74234444 -111.99365234 -23.77783203 C-72.98972376 -33.37773216 -31.13882328 -25.77898671 0 0 Z M-173.97363281 19.74511719 C-184.47649391 32.29133647 -192.36963916 47.06532385 -196.97363281 62.74511719 C-197.16973145 63.40334473 -197.36583008 64.06157227 -197.56787109 64.73974609 C-206.17041376 94.80995862 -201.84669385 128.99428314 -187.06347656 156.38964844 C-169.67900878 185.91111632 -142.91647087 207.42665662 -109.85253906 216.58886719 C-77.06365196 224.76835885 -43.43101264 219.29017862 -14.59472656 202.06542969 C-9.31136911 198.76834888 -4.61640477 194.88245519 0.02636719 190.74511719 C1.28513672 189.68357422 1.28513672 189.68357422 2.56933594 188.60058594 C18.10203147 175.23524327 28.63554645 158.66179976 36.02636719 139.74511719 C36.42726562 138.72804687 36.82816406 137.71097656 37.24121094 136.66308594 C47.87385776 107.33303 45.17068232 73.8452581 32.11962891 45.79638672 C17.66367702 15.78171961 -7.63058397 -6.4385434 -38.41113281 -18.50488281 C-45.0930805 -20.81139216 -52.0207657 -22.06317961 -58.97363281 -23.25488281 C-60.51083984 -23.53138672 -60.51083984 -23.53138672 -62.07910156 -23.81347656 C-106.25301049 -28.82014829 -144.65690107 -13.13943725 -173.97363281 19.74511719 Z " fill="#080808" transform="translate(203.9736328125,27.2548828125)"/>
<path d="M0 0 C0.80824219 0.05800781 1.61648437 0.11601563 2.44921875 0.17578125 C-0.35546875 4.98828125 -0.35546875 4.98828125 -2.11328125 6.67578125 C-3.71478192 8.13267533 -3.71478192 8.13267533 -4.30078125 10.42578125 C-5.56511932 13.20732501 -6.53474228 14.22123333 -8.73828125 16.23828125 C-15.37560552 22.66732128 -19.58817533 29.87149603 -20.48828125 39.11328125 C-21.11269114 44.68647165 -21.11269114 44.68647165 -23.12109375 46.9296875 C-25.20721206 48.23453405 -27.29370539 49.19912492 -29.55078125 50.17578125 C-31.13849032 51.12684757 -32.72187602 52.08516979 -34.30078125 53.05078125 C-37.94491384 55.23988248 -37.94491384 55.23988248 -40.48681641 54.97094727 C-43.18783017 53.93035088 -44.01558503 52.6445045 -45.65234375 50.2734375 C-46.21985352 49.47091553 -46.78736328 48.66839355 -47.37207031 47.84155273 C-47.96729492 46.98247314 -48.56251953 46.12339355 -49.17578125 45.23828125 C-53.06570213 39.75615741 -56.77588741 34.62770968 -61.80078125 30.11328125 C-69.5738575 22.8678476 -73.86810791 12.56993631 -78.55078125 3.17578125 C-73.90920419 3.80302139 -73.90920419 3.80302139 -71.98828125 5.80078125 C-71.51390625 6.25453125 -71.03953125 6.70828125 -70.55078125 7.17578125 C-69.93847656 6.964375 -69.32617188 6.75296875 -68.6953125 6.53515625 C-67.98761719 6.4165625 -67.27992187 6.29796875 -66.55078125 6.17578125 C-64.69140625 7.65234375 -64.69140625 7.65234375 -62.80078125 9.80078125 C-59.08834346 13.77839316 -55.29479043 16.55143575 -50.55078125 19.17578125 C-50.55078125 17.85578125 -50.55078125 16.53578125 -50.55078125 15.17578125 C-47.92890631 16.22453123 -46.75706764 16.82509438 -45.30078125 19.30078125 C-45.05328125 19.91953125 -44.80578125 20.53828125 -44.55078125 21.17578125 C-43.56078125 20.84578125 -42.57078125 20.51578125 -41.55078125 20.17578125 C-41.05578125 18.69078125 -41.05578125 18.69078125 -40.55078125 17.17578125 C-39.56078125 17.50578125 -38.57078125 17.83578125 -37.55078125 18.17578125 C-37.05578125 19.66078125 -37.05578125 19.66078125 -36.55078125 21.17578125 C-30.37357808 16.03511558 -25.24809834 10.70067188 -20.55078125 4.17578125 C-19.22046875 4.57796875 -19.22046875 4.57796875 -17.86328125 4.98828125 C-16.22359375 5.08109375 -16.22359375 5.08109375 -14.55078125 5.17578125 C-13.49890625 3.96921875 -13.49890625 3.96921875 -12.42578125 2.73828125 C-8.38722938 -0.86129759 -5.23027404 -0.22081977 0 0 Z " fill="#009027" transform="translate(165.55078125,100.82421875)"/>
<path d="M0 0 C11.31796913 8.8620438 19.84645573 18.42253405 27 30.875 C27.50273437 31.73867187 28.00546875 32.60234375 28.5234375 33.4921875 C38.70131817 52.3058457 40.17201637 76.99596694 34.1953125 97.37109375 C28.86231997 113.00408165 21.45123382 125.13277818 10 136.875 C9.41605469 137.53242188 8.83210937 138.18984375 8.23046875 138.8671875 C-2.88983445 151.08544468 -22.12535738 160.15927595 -38.4375 161.5 C-39.73494141 161.61214844 -39.73494141 161.61214844 -41.05859375 161.7265625 C-41.69925781 161.77554688 -42.33992188 161.82453125 -43 161.875 C-43 161.215 -43 160.555 -43 159.875 C-42.030625 159.73964844 -41.06125 159.60429687 -40.0625 159.46484375 C-20.53624831 156.44529494 -4.11984148 147.74229147 10 133.875 C10.76183594 133.13765625 11.52367187 132.4003125 12.30859375 131.640625 C29.65422577 113.72381966 34.54807644 91.6080623 34.1953125 67.41796875 C33.97701305 59.25384575 33.25325889 51.44771186 30 43.875 C25.2883781 44.59419423 21.10719192 46.28137487 16.70703125 48.03515625 C15.91979172 48.34448593 15.13255219 48.65381561 14.32145691 48.97251892 C11.81690114 49.9569148 9.31451064 50.94665471 6.8125 51.9375 C4.29967256 52.93163571 1.7863883 53.92451498 -0.72859192 54.91319275 C-2.29131165 55.52757231 -3.85278719 56.14512773 -5.41288757 56.76612854 C-10.77488576 58.875 -10.77488576 58.875 -13 58.875 C-12.7834375 59.926875 -12.7834375 59.926875 -12.5625 61 C-13.16699682 64.97240768 -15.11762335 66.05168923 -18.1875 68.453125 C-20.15534705 69.93172589 -20.15534705 69.93172589 -22.25 72.1875 C-24 73.875 -24 73.875 -27 74.875 C-25.33794348 69.88883044 -22.68435343 67.41073401 -18.875 63.9375 C-16.8144894 61.67093834 -16.05948818 59.72294044 -15 56.875 C-13.46367545 54.72880116 -11.75264464 52.85825578 -10 50.875 C-13.71081171 50.58255424 -17.29859909 50.42412114 -21 50.875 C-23.79245093 53.33317955 -23.79245093 53.33317955 -26 55.875 C-29.3125 55.6875 -29.3125 55.6875 -32 54.875 C-32.391875 55.473125 -32.78375 56.07125 -33.1875 56.6875 C-35.66393042 59.67629533 -38.57017634 61.16008817 -42 62.875 C-40.43632643 59.35261953 -38.30504111 56.60376006 -35.875 53.625 C-35.15054688 52.73296875 -34.42609375 51.8409375 -33.6796875 50.921875 C-33.12539062 50.24640625 -32.57109375 49.5709375 -32 48.875 C-30.515 49.865 -30.515 49.865 -29 50.875 C-26.98775876 50.85233657 -26.98775876 50.85233657 -25 49.875 C-24.4225 49.17375 -23.845 48.4725 -23.25 47.75 C-21 45.875 -21 45.875 -17.1875 46.125 C-16.49785156 46.25648437 -15.80820313 46.38796875 -15.09765625 46.5234375 C-12.71702021 46.99323593 -12.71702021 46.99323593 -9.125 46.75 C-8.09375 46.79125 -7.0625 46.8325 -6 46.875 C-5.01 48.36 -5.01 48.36 -4 49.875 C-4.66 50.865 -5.32 51.855 -6 52.875 C-5.20827393 52.55225098 -4.41654785 52.22950195 -3.60083008 51.89697266 C-0.64694409 50.69290422 2.30700131 49.48898171 5.26098633 48.28515625 C6.53640059 47.76535746 7.81179155 47.24550151 9.0871582 46.72558594 C10.92653285 45.97575886 12.76599988 45.2261584 14.60546875 44.4765625 C15.71043701 44.02619629 16.81540527 43.57583008 17.95385742 43.11181641 C18.95908447 42.70366699 19.96431152 42.29551758 21 41.875 C22.34251831 41.29951416 22.34251831 41.29951416 23.7121582 40.71240234 C26 39.875 26 39.875 29 39.875 C16.3666061 14.68945589 -1.5998792 -2.04707132 -28.1796875 -11.22265625 C-50.08208564 -17.09424677 -75.31859887 -14.36457226 -95.140625 -3.45703125 C-109.16311166 4.74393464 -119.73010324 15.80051726 -128.37109375 29.50390625 C-130 31.875 -130 31.875 -132 32.875 C-125.17759196 14.25345148 -106.93633656 -0.70642526 -89.53125 -9.140625 C-60.67770916 -22.22189352 -25.62152946 -18.47288891 0 0 Z " fill="#221A0E" transform="translate(177,51.125)"/>
<path d="M0 0 C0.99 0.33 1.98 0.66 3 1 C4.05047644 3.31104818 5.05007438 5.64583651 6 8 C6.66 8.66 7.32 9.32 8 10 C8.23046875 12.53125 8.23046875 12.53125 8.1875 15.5 C8.18105469 16.4796875 8.17460937 17.459375 8.16796875 18.46875 C8 21 8 21 7 23 C4.35139573 23.59355614 1.70802678 23.74209269 -1 24 C-0.67 25.65 -0.34 27.3 0 29 C-6.43583385 32.36418587 -11.02609845 33.14546 -18.25 33.0625 C-18.99507812 33.05798828 -19.74015625 33.05347656 -20.5078125 33.04882812 C-22.3385764 33.03709246 -24.16929873 33.0191585 -26 33 C-23.02211505 29.8022097 -19.81486577 28.08737938 -16 26 C-16 25.01 -16 24.02 -16 23 C-16.66 22.67 -17.32 22.34 -18 22 C-17.34 20.02 -16.68 18.04 -16 16 C-16.99 15.01 -17.98 14.02 -19 13 C-13.9059081 7.11816193 -13.9059081 7.11816193 -10.125 6.625 C-9.42375 6.74875 -8.7225 6.8725 -8 7 C-8 5.68 -8 4.36 -8 3 C-5.03824877 3.61277612 -3.61941217 4.25372522 -1 6 C-1.020625 5.195625 -1.04125 4.39125 -1.0625 3.5625 C-1 1 -1 1 0 0 Z " fill="#050000" transform="translate(176,130)"/>
<path d="M0 0 C3.20395416 0 5.09399739 0.74335022 8 2 C8 2.99 8 3.98 8 5 C9.53786305 8.22383452 9.53786305 8.22383452 12 11 C15.13265479 11.9688059 15.13265479 11.9688059 18 12 C17.505 12.433125 17.01 12.86625 16.5 13.3125 C14.66781808 14.99740483 14.66781808 14.99740483 15 18 C13.68 16.68 12.36 15.36 11 14 C11.495 14.61875 11.99 15.2375 12.5 15.875 C14 18 14 18 14 20 C12.02 20.33 10.04 20.66 8 21 C8.66 23.31 9.32 25.62 10 28 C6.06329512 29.31223496 3.87511856 28.24296256 0 27 C0.66 28.98 1.32 30.96 2 33 C0.5 31.6875 0.5 31.6875 -1 30 C-1 29.01 -1 28.02 -1 27 C-1.66 27 -2.32 27 -3 27 C-2.484375 27.94875 -1.96875 28.8975 -1.4375 29.875 C-0.963125 30.90625 -0.48875 31.9375 0 33 C-0.33 33.66 -0.66 34.32 -1 35 C-1.70226141 33.75823305 -2.38629109 32.50614401 -3.0625 31.25 C-3.44535156 30.55390625 -3.82820313 29.8578125 -4.22265625 29.140625 C-5 27 -5 27 -4.43359375 25.11328125 C-3.7511468 21.78712087 -5.39076926 19.83627055 -7 16.9375 C-8.75 13.77734375 -8.75 13.77734375 -10 11 C-9.67 10.01 -9.34 9.02 -9 8 C-8.566875 8.66 -8.13375 9.32 -7.6875 10 C-6.8521875 10.99 -6.8521875 10.99 -6 12 C-5.01 12 -4.02 12 -3 12 C-3.66 10.02 -4.32 8.04 -5 6 C-2.8614515 3.8614515 -1.86724686 3.57344937 1 3 C0.67 2.01 0.34 1.02 0 0 Z " fill="#00375C" transform="translate(84,131)"/>
<path d="M0 0 C0.99 0 1.98 0 3 0 C4.32 3.96 5.64 7.92 7 12 C6.01 12.33 5.02 12.66 4 13 C3.2575 12.21625 2.515 11.4325 1.75 10.625 C-0.97242945 7.76871373 -0.97242945 7.76871373 -5 6 C-4.01 8.97 -3.02 11.94 -2 15 C-3 16 -3 16 -5.06640625 16.09765625 C-5.89011719 16.08605469 -6.71382812 16.07445312 -7.5625 16.0625 C-8.38878906 16.05347656 -9.21507812 16.04445312 -10.06640625 16.03515625 C-11.02353516 16.01775391 -11.02353516 16.01775391 -12 16 C-12 15.01 -12 14.02 -12 13 C-14.475 12.505 -14.475 12.505 -17 12 C-16.67 13.65 -16.34 15.3 -16 17 C-18.52475462 18.26237731 -20.31200466 18.09856404 -23.125 18.0625 C-24.73375 18.041875 -26.3425 18.02125 -28 18 C-28 14.37 -28 10.74 -28 7 C-28.66 7 -29.32 7 -30 7 C-31.20272819 9.40545638 -31.10071472 10.94996953 -31.0625 13.625 C-31.05347656 14.44226563 -31.04445313 15.25953125 -31.03515625 16.1015625 C-31.02355469 16.72804687 -31.01195313 17.35453125 -31 18 C-32.98 18 -34.96 18 -37 18 C-37 13.38 -37 8.76 -37 4 C-31.06 4 -25.12 4 -19 4 C-19.33 5.32 -19.66 6.64 -20 8 C-20.99 7.34 -21.98 6.68 -23 6 C-22.67 9.3 -22.34 12.6 -22 16 C-21.34 16 -20.68 16 -20 16 C-19.01 12.04 -18.02 8.08 -17 4 C-15.35 3.67 -13.7 3.34 -12 3 C-10.02 6.63 -8.04 10.26 -6 14 C-6.309375 12.55625 -6.61875 11.1125 -6.9375 9.625 C-7.11152344 8.81289062 -7.28554687 8.00078125 -7.46484375 7.1640625 C-7.92330693 4.970537 -7.92330693 4.970537 -9 3 C-5.74825607 1.59384046 -3.5554083 1 0 1 C0 0.67 0 0.34 0 0 Z " fill="#1D1D1D" transform="translate(153,221)"/>
<path d="M0 0 C0.82821226 2.35721952 1.12949427 3.6115172 0.328125 6.015625 C-0.02765625 6.75296875 -0.3834375 7.4903125 -0.75 8.25 C-9.41051003 28.81871132 -7.61117005 53.45992189 0 74 C8.67504775 95.14201889 25.76675132 111.67518732 46.6171875 120.71875 C56.91420177 124.61877388 67.00792326 126.62927229 78 127 C78 123.7 78 120.4 78 117 C78.33 117 78.66 117 79 117 C79.495 122.445 79.495 122.445 80 128 C60.45340442 130.80982312 43.43660486 124.0268555 27.6875 112.6875 C8.0055025 97.08591662 -5.21895425 76.68091368 -8.75 51.625 C-8.86575727 50.08542837 -8.94320715 48.54287236 -9 47 C-9.0515625 45.74703125 -9.103125 44.4940625 -9.15625 43.203125 C-9.58954381 27.64035729 -6.21036656 14.16928293 0 0 Z " fill="#132430" transform="translate(44,84)"/>
<path d="M0 0 C4.12751449 0.60698743 7.3321148 2.03810791 11 4 C11 4.66 11 5.32 11 6 C12.0725 5.79375 13.145 5.5875 14.25 5.375 C17.86935819 5.01306418 19.14160546 4.91117322 22 7 C23.52491998 10.04983996 23.23562548 12.6423369 23 16 C21.9375 17.9375 21.9375 17.9375 20 19 C16.39615894 19.3931463 13.90258224 19.39343329 10.5625 17.9375 C8.23356006 15.04961448 8.72949205 12.58423038 9 9 C6.69 9.33 4.38 9.66 2 10 C1.67 11.32 1.34 12.64 1 14 C-0.98 13.34 -2.96 12.68 -5 12 C-4.34 11.67 -3.68 11.34 -3 11 C-2.62127066 9.34305915 -2.29749946 7.67343448 -2 6 C-1.35610218 3.99255385 -0.69437747 1.99054876 0 0 Z " fill="#343434" transform="translate(80,216)"/>
<path d="M0 0 C2.31 0 4.62 0 7 0 C6.47731534 2.76276177 5.89130413 5.3260876 5 8 C5.84848511 7.87540405 5.84848511 7.87540405 6.71411133 7.74829102 C16.40553771 6.58443098 25.98164534 7.35104625 35.6875 7.9375 C37.46805702 8.03914884 39.24865595 8.14006617 41.02929688 8.24023438 C45.35339399 8.48505955 49.67680353 8.7397737 54 9 C54 9.99 54 10.98 54 12 C48.44987305 12.02484561 42.89977898 12.04292868 37.34960938 12.05493164 C35.46418697 12.05993919 33.5787684 12.06674715 31.69335938 12.07543945 C28.97264656 12.08766253 26.2519854 12.09326424 23.53125 12.09765625 C22.28075867 12.10539818 22.28075867 12.10539818 21.00500488 12.11329651 C15.91292184 12.11377714 11.04062523 11.73129553 6 11 C6.66 12.65 7.32 14.3 8 16 C5.03 16 2.06 16 -1 16 C-0.67 15.01 -0.34 14.02 0 13 C0.06937062 10.77181559 0.08457084 8.54165476 0.0625 6.3125 C0.05347656 5.13300781 0.04445313 3.95351563 0.03515625 2.73828125 C0.02355469 1.83464844 0.01195313 0.93101563 0 0 Z " fill="#292600" transform="translate(101,46)"/>
<path d="M0 0 C1.71767682 3.98188718 3.41037341 7.96479403 5 12 C4.01 12.33 3.02 12.66 2 13 C2 12.01 2 11.02 2 10 C1.071875 9.855625 0.14375 9.71125 -0.8125 9.5625 C-4 9 -4 9 -7 8 C-6.505 8.78375 -6.01 9.5675 -5.5 10.375 C-4 13 -4 13 -4 15 C-3.34 15.33 -2.68 15.66 -2 16 C-4.97 17.98 -7.94 19.96 -11 22 C-11.33 21.34 -11.66 20.68 -12 20 C-12.99 20 -13.98 20 -15 20 C-14.34 21.32 -13.68 22.64 -13 24 C-14.98 24.99 -14.98 24.99 -17 26 C-19.31 23.03 -21.62 20.06 -24 17 C-21.79795605 12.59591211 -20.23481604 11.33347006 -16 9 C-15.01 9.33 -14.02 9.66 -13 10 C-13 11.65 -13 13.3 -13 15 C-12.21625 15.144375 -11.4325 15.28875 -10.625 15.4375 C-8 16 -8 16 -6 17 C-6.37253906 16.31292969 -6.74507812 15.62585937 -7.12890625 14.91796875 C-7.60199219 14.01691406 -8.07507813 13.11585937 -8.5625 12.1875 C-9.03816406 11.29417969 -9.51382813 10.40085937 -10.00390625 9.48046875 C-11 7 -11 7 -10 4 C-7.4375 2.8125 -7.4375 2.8125 -5 2 C-5 2.66 -5 3.32 -5 4 C-4.01 4 -3.02 4 -2 4 C-2 3.34 -2 2.68 -2 2 C-2.66 1.67 -3.32 1.34 -4 1 C-2 0 -2 0 0 0 Z " fill="#2B2B2B" transform="translate(73,23)"/>
<path d="M0 0 C0.94875 0.825 1.8975 1.65 2.875 2.5 C5.09894141 4.42711145 7.34482084 6.26124308 9.69140625 8.0390625 C10.59761719 8.72742188 11.50382812 9.41578125 12.4375 10.125 C13.30246094 10.76695312 14.16742188 11.40890625 15.05859375 12.0703125 C15.69925781 12.70710937 16.33992188 13.34390625 17 14 C17 15.32 17 16.64 17 18 C15.68 18 14.36 18 13 18 C12.67 20.97 12.34 23.94 12 27 C8 25 8 25 7 22 C7 20.68 7 19.36 7 18 C6.01 19.32 5.02 20.64 4 22 C2.68 20.35 1.36 18.7 0 17 C2.31 15.02 4.62 13.04 7 11 C6.01 10.01 5.02 9.02 4 8 C1.69 10.31 -0.62 12.62 -3 15 C-4.65 13.35 -6.3 11.7 -8 10 C-6.88625 9.4225 -5.7725 8.845 -4.625 8.25 C-1.66807857 6.57739798 -0.07684279 5.35017758 1 2 C0.01 1.67 -0.98 1.34 -2 1 C-1.34 0.67 -0.68 0.34 0 0 Z " fill="#2F2F2F" transform="translate(50,193)"/>
<path d="M0 0 C0.66 0.33 1.32 0.66 2 1 C1.67 3.31 1.34 5.62 1 8 C2.52100023 6.47899977 3.72023232 4.72490426 5 3 C5.625 5.8125 5.625 5.8125 6 9 C5.01 10.485 5.01 10.485 4 12 C4.66 12.33 5.32 12.66 6 13 C6.12375 12.38125 6.2475 11.7625 6.375 11.125 C7 9 7 9 9 7 C9.66 8.32 10.32 9.64 11 11 C11.66 11 12.32 11 13 11 C13.1875 14.375 13.1875 14.375 13 18 C9.73201451 20.178657 8.79094962 20.72208564 5 20 C2.4375 17.1875 2.4375 17.1875 1.203125 15.53515625 C-0.28622117 13.63478922 -1.99900135 12.3339991 -4 11 C-3.67 10.67 -3.34 10.34 -3 10 C-5.475 9.01 -5.475 9.01 -8 8 C-7.67 7.34 -7.34 6.68 -7 6 C-5.35 6 -3.7 6 -2 6 C-1.855625 5.38125 -1.71125 4.7625 -1.5625 4.125 C-1 2 -1 2 0 0 Z " fill="#003028" transform="translate(67,168)"/>
<path d="M0 0 C1.0725 0.928125 2.145 1.85625 3.25 2.8125 C5.76901275 4.9738436 8.30455361 7.0592786 11 9 C9.35 10.32 7.7 11.64 6 13 C5.60167969 12.50628906 5.20335937 12.01257813 4.79296875 11.50390625 C3.99826172 10.54291016 3.99826172 10.54291016 3.1875 9.5625 C2.66542969 8.92441406 2.14335937 8.28632813 1.60546875 7.62890625 C-0.00834411 5.7451725 -0.00834411 5.7451725 -3 5 C-2.04367001 6.29315061 -1.08486149 7.58446853 -0.125 8.875 C0.40867188 9.59429687 0.94234375 10.31359375 1.4921875 11.0546875 C2.99873162 13.08252632 2.99873162 13.08252632 5 15 C4.01 15.66 3.02 16.32 2 17 C1.67 16.34 1.34 15.68 1 15 C-1.64 15 -4.28 15 -7 15 C-5.02 16.65 -3.04 18.3 -1 20 C-1.99 20.99 -2.98 21.98 -4 23 C-4.48210937 22.44570312 -4.96421875 21.89140625 -5.4609375 21.3203125 C-6.09257812 20.59585938 -6.72421875 19.87140625 -7.375 19.125 C-8.00148437 18.40570313 -8.62796875 17.68640625 -9.2734375 16.9453125 C-10.47426834 15.5923402 -11.7208345 14.2791655 -13 13 C-8.71 8.71 -4.42 4.42 0 0 Z " fill="#121212" transform="translate(199,192)"/>
<path d="M0 0 C3.20395416 0 5.09399739 0.74335022 8 2 C8 2.99 8 3.98 8 5 C9.53786305 8.22383452 9.53786305 8.22383452 12 11 C15.13265479 11.9688059 15.13265479 11.9688059 18 12 C17.505 12.433125 17.01 12.86625 16.5 13.3125 C14.66781808 14.99740483 14.66781808 14.99740483 15 18 C13.68 16.68 12.36 15.36 11 14 C10.67 14.66 10.34 15.32 10 16 C8.99421411 14.71283353 7.99553202 13.42011342 7 12.125 C6.443125 11.40570313 5.88625 10.68640625 5.3125 9.9453125 C4 8 4 8 4 6 C2.35 6 0.7 6 -1 6 C-0.7215625 7.175625 -0.7215625 7.175625 -0.4375 8.375 C0 11 0 11 -1 13 C-2.65 13.33 -4.3 13.66 -6 14 C-4.02 17.63 -2.04 21.26 0 25 C1.98 24.67 3.96 24.34 6 24 C6 24.66 6 25.32 6 26 C4.02 26.33 2.04 26.66 0 27 C0.66 28.98 1.32 30.96 2 33 C0.5 31.6875 0.5 31.6875 -1 30 C-1 29.01 -1 28.02 -1 27 C-1.66 27 -2.32 27 -3 27 C-2.484375 27.94875 -1.96875 28.8975 -1.4375 29.875 C-0.963125 30.90625 -0.48875 31.9375 0 33 C-0.33 33.66 -0.66 34.32 -1 35 C-1.70226141 33.75823305 -2.38629109 32.50614401 -3.0625 31.25 C-3.44535156 30.55390625 -3.82820313 29.8578125 -4.22265625 29.140625 C-5 27 -5 27 -4.43359375 25.11328125 C-3.7511468 21.78712087 -5.39076926 19.83627055 -7 16.9375 C-8.75 13.77734375 -8.75 13.77734375 -10 11 C-9.67 10.01 -9.34 9.02 -9 8 C-8.566875 8.66 -8.13375 9.32 -7.6875 10 C-6.8521875 10.99 -6.8521875 10.99 -6 12 C-5.01 12 -4.02 12 -3 12 C-3.66 10.02 -4.32 8.04 -5 6 C-2.8614515 3.8614515 -1.86724686 3.57344937 1 3 C0.67 2.01 0.34 1.02 0 0 Z " fill="#001D30" transform="translate(84,131)"/>
<path d="M0 0 C2.9375 2.0625 2.9375 2.0625 5 5 C4.93185849 9.02034924 4.8823175 11.1176825 2 14 C-4.96328294 14.67386609 -4.96328294 14.67386609 -8.5 12.375 C-10.45562482 9.27859404 -10.60024477 7.60146865 -10 4 C-7.2247536 -0.05612936 -4.80517165 -0.88258255 0 0 Z " fill="#141414" transform="translate(155,13)"/>
<path d="M0 0 C1.9375 1.0625 1.9375 1.0625 3 3 C3.3931463 6.60384106 3.39343329 9.09741776 1.9375 12.4375 C0 14 0 14 -3.4375 14.5 C-7 14 -7 14 -9.5 12.4375 C-11 10 -11 10 -10.9375 6.4375 C-10 3 -10 3 -8.875 1.0625 C-5.86086748 -0.64550843 -3.37911601 -0.36204814 0 0 Z " fill="#0B0B0B" transform="translate(33,68)"/>
<path d="M0 0 C2.4375 1.625 2.4375 1.625 4 4 C4.60975382 7.65852292 4.44543026 9.30512879 2.4375 12.4375 C0 14 0 14 -3.5625 13.9375 C-7 13 -7 13 -8.9375 11.875 C-10.64550843 8.86086748 -10.36204814 6.37911601 -10 3 C-7.7773391 -1.05308751 -4.20075589 -0.5158823 0 0 Z " fill="#0C0C0C" transform="translate(74,211)"/>
<path d="M0 0 C0.99 0.66 1.98 1.32 3 2 C3.1875 5.625 3.1875 5.625 3 9 C3.12375 8.4225 3.2475 7.845 3.375 7.25 C4.00648824 4.97664233 4.88858191 3.0746471 6 1 C8 3 8 3 8.1953125 4.9453125 C8.13020833 6.96354167 8.06510417 8.98177083 8 11 C8.66 11 9.32 11 10 11 C10 8.36 10 5.72 10 3 C13 4 13 4 14 6 C14.375 8.9375 14.375 8.9375 14 12 C10.75566237 14.70361469 9.29107948 15 5 15 C5 14.34 5 13.68 5 13 C3.35 13 1.7 13 0 13 C0 12.34 0 11.68 0 11 C-1.98 11 -3.96 11 -6 11 C-4.7934375 9.948125 -4.7934375 9.948125 -3.5625 8.875 C-0.76566189 5.73708407 -0.28691249 4.11241237 0 0 Z " fill="#003729" transform="translate(98,190)"/>
<path d="M0 0 C0.67119549 1.4562545 1.33681807 2.91507867 2 4.375 C2.556875 5.59316406 2.556875 5.59316406 3.125 6.8359375 C4 9 4 9 4 11 C4.66 11.33 5.32 11.66 6 12 C4.02 12.66 2.04 13.32 0 14 C-0.66 12.35 -1.32 10.7 -2 9 C-2.33 10.32 -2.66 11.64 -3 13 C-5.475 12.01 -5.475 12.01 -8 11 C-7.505 11.78375 -7.01 12.5675 -6.5 13.375 C-5 16 -5 16 -5 18 C-5.99 18.33 -6.98 18.66 -8 19 C-9.88695626 14.71146306 -11.58192622 10.47238653 -13 6 C-11.35 5.34 -9.7 4.68 -8 4 C-7.34 4.66 -6.68 5.32 -6 6 C-6 4.68 -6 3.36 -6 2 C-2.25 0 -2.25 0 0 0 Z " fill="#121212" transform="translate(176,212)"/>
<path d="M0 0 C3.43742918 -0.05802698 6.87473253 -0.09360486 10.3125 -0.125 C11.28896484 -0.14175781 12.26542969 -0.15851563 13.27148438 -0.17578125 C14.20927734 -0.18222656 15.14707031 -0.18867188 16.11328125 -0.1953125 C16.97735596 -0.20578613 17.84143066 -0.21625977 18.73168945 -0.22705078 C21 0 21 0 24 2 C23.18015625 1.98839844 22.3603125 1.97679687 21.515625 1.96484375 C20.43796875 1.95582031 19.3603125 1.94679687 18.25 1.9375 C17.18265625 1.92589844 16.1153125 1.91429687 15.015625 1.90234375 C11.80102903 1.9002784 11.80102903 1.9002784 8 3 C12.95 3.33 17.9 3.66 23 4 C23 5.65 23 7.3 23 9 C11.55654497 11.57880677 11.55654497 11.57880677 6 11 C5.34 10.01 4.68 9.02 4 8 C6.97 8.495 6.97 8.495 10 9 C10.33 8.34 10.66 7.68 11 7 C7.59437148 6.22157062 4.49234244 5.90021879 1 6 C1 5.34 1 4.68 1 4 C1.66 4 2.32 4 3 4 C3 3.34 3 2.68 3 2 C2.01 1.67 1.02 1.34 0 1 C0 0.67 0 0.34 0 0 Z " fill="#003051" transform="translate(42,129)"/>
<path d="M0 0 C8.00644918 0.23761075 8.00644918 0.23761075 10.8515625 2.58203125 C13.96484375 6.88174919 13.96484375 6.88174919 13.96484375 9.02734375 C6.37484375 9.02734375 -1.21515625 9.02734375 -9.03515625 9.02734375 C-3.03515625 1.02734375 -3.03515625 1.02734375 0 0 Z " fill="#040300" transform="translate(124.03515625,84.97265625)"/>
<path d="M0 0 C0.20496094 0.68707031 0.40992187 1.37414062 0.62109375 2.08203125 C0.89050781 2.98308594 1.15992187 3.88414063 1.4375 4.8125 C1.83775391 6.15248047 1.83775391 6.15248047 2.24609375 7.51953125 C2.80387873 9.35473055 3.39344575 11.18033726 4 13 C2.35 13.66 0.7 14.32 -1 15 C-1.66 13.02 -2.32 11.04 -3 9 C-3.33 10.32 -3.66 11.64 -4 13 C-5.32 12.34 -6.64 11.68 -8 11 C-8 11.99 -8 12.98 -8 14 C-8 14.66 -8 15.32 -8 16 C-7.34 16.33 -6.68 16.66 -6 17 C-7.32 17.33 -8.64 17.66 -10 18 C-10.67057887 16.2097939 -11.3363469 14.41778511 -12 12.625 C-12.37125 11.62726562 -12.7425 10.62953125 -13.125 9.6015625 C-14 7 -14 7 -14 5 C-12.02 4.67 -10.04 4.34 -8 4 C-8 4.66 -8 5.32 -8 6 C-7.34 6 -6.68 6 -6 6 C-6 4.68 -6 3.36 -6 2 C-1.125 0 -1.125 0 0 0 Z " fill="#1C1C1C" transform="translate(90,15)"/>
<path d="M0 0 C0.99 0.33 1.98 0.66 3 1 C3.8125 2.875 3.8125 2.875 4 5 C3.01 6.485 3.01 6.485 2 8 C3.32 7.67 4.64 7.34 6 7 C6.99 8.65 7.98 10.3 9 12 C7.3790787 13.17232685 5.75313167 14.3377077 4.125 15.5 C3.22007813 16.1496875 2.31515625 16.799375 1.3828125 17.46875 C-1 19 -1 19 -3 19 C-3.66 17.35 -4.32 15.7 -5 14 C-3.02 13.01 -1.04 12.02 1 11 C-0.65 10.67 -2.3 10.34 -4 10 C-3.34 8.35 -2.68 6.7 -2 5 C-4.31 6.32 -6.62 7.64 -9 9 C-9.33 8.01 -9.66 7.02 -10 6 C-9.36191406 5.65066406 -8.72382813 5.30132812 -8.06640625 4.94140625 C-7.24011719 4.48636719 -6.41382813 4.03132812 -5.5625 3.5625 C-4.73878906 3.11003906 -3.91507813 2.65757812 -3.06640625 2.19140625 C-1.07691202 1.16337603 -1.07691202 1.16337603 0 0 Z " fill="#0C0C0C" transform="translate(33,171)"/>
<path d="M0 0 C1.5 1.3125 1.5 1.3125 3 3 C3 3.99 3 4.98 3 6 C4.65 6 6.3 6 8 6 C8.33 6.66 8.66 7.32 9 8 C7.02 8.99 7.02 8.99 5 10 C5 10.66 5 11.32 5 12 C3.70264493 13.04625409 2.36733028 14.04701223 1 15 C0.67 15.33 0.34 15.66 0 16 C-2.33297433 16.04092937 -4.66705225 16.04241723 -7 16 C-8.4783226 13.04335481 -8.06032783 10.25770263 -8 7 C-6.5 8.3125 -6.5 8.3125 -5 10 C-5 10.99 -5 11.98 -5 13 C-4.34 12.67 -3.68 12.34 -3 12 C-3.66 11.01 -4.32 10.02 -5 9 C-4.625 5.8125 -4.625 5.8125 -4 3 C-3.34 3.66 -2.68 4.32 -2 5 C-1.34 3.35 -0.68 1.7 0 0 Z " fill="#2D1B0D" transform="translate(180,168)"/>
<path d="M0 0 C5.61 0 11.22 0 17 0 C16 6 16 6 14 8 C11.1796875 8.1953125 11.1796875 8.1953125 7.875 8.125 C6.77929688 8.10695313 5.68359375 8.08890625 4.5546875 8.0703125 C3.29011719 8.03550781 3.29011719 8.03550781 2 8 C0.23537317 4.91190305 0 3.76687864 0 0 Z " fill="#0B0A00" transform="translate(119,65)"/>
<path d="M0 0 C6.30162703 0.59449312 6.30162703 0.59449312 8.9375 2.125 C10.64550843 5.13913252 10.36204814 7.62088399 10 11 C8.75 13 8.75 13 7 14 C3.9582904 13.71483972 2.60954198 12.73969465 0 11 C-0.42905061 7.05273438 -0.08466413 4.38757921 2 1 C1.34 0.67 0.68 0.34 0 0 Z " fill="#0C0C0C" transform="translate(93,221)"/>
<path d="M0 0 C3.465 1.485 3.465 1.485 7 3 C6.49613976 7.33319809 5.88057657 10.63932733 3 14 C-0.66204371 15.06532181 -2.87578939 15.46121461 -6.4375 14 C-8.79043598 10.98824195 -8.39101563 8.71464852 -8 5 C-7 2.5625 -7 2.5625 -6 1 C-4.68 1.33 -3.36 1.66 -2 2 C-2.99 2.66 -3.98 3.32 -5 4 C-4.67 5.65 -4.34 7.3 -4 9 C-1.03 9.495 -1.03 9.495 2 10 C2.66 8.68 3.32 7.36 4 6 C2.02 6 0.04 6 -2 6 C-1.34 4.02 -0.68 2.04 0 0 Z " fill="#090909" transform="translate(24,83)"/>
<path d="M0 0 C3.97369646 1.98346348 7.05973691 4.69495796 10.3125 7.6875 C11.19550781 8.49574219 12.07851562 9.30398437 12.98828125 10.13671875 C13.65214844 10.75160156 14.31601563 11.36648437 15 12 C12 12 12 12 10 11 C10.99 12.485 10.99 12.485 12 14 C6.94028103 14.78512881 6.94028103 14.78512881 4 14 C1.34259738 11.3481568 -0.49879137 8.43458338 -2 5 C-2 3.68 -2 2.36 -2 1 C-1.34 0.67 -0.68 0.34 0 0 Z " fill="#002C4A" transform="translate(92,129)"/>
<path d="M0 0 C2.31 0 4.62 0 7 0 C6.47731534 2.76276177 5.89130413 5.3260876 5 8 C8.3 8 11.6 8 15 8 C14.67 8.66 14.34 9.32 14 10 C11.03 10 8.06 10 5 10 C5.99 11.98 6.98 13.96 8 16 C5.03 16 2.06 16 -1 16 C-0.67 15.01 -0.34 14.02 0 13 C0.06937062 10.77181559 0.08457084 8.54165476 0.0625 6.3125 C0.05347656 5.13300781 0.04445313 3.95351563 0.03515625 2.73828125 C0.02355469 1.83464844 0.01195313 0.93101563 0 0 Z " fill="#0D0C00" transform="translate(101,46)"/>
<path d="M0 0 C2.38112715 0.42089145 4.70854332 0.89675726 7.0625 1.4375 C8.05733398 1.65889648 8.05733398 1.65889648 9.07226562 1.88476562 C10.71600216 2.25135435 12.35815647 2.62502412 14 3 C13.34 4.65 12.68 6.3 12 8 C9.66666667 8 7.33333333 8 5 8 C5.99 9.98 6.98 11.96 8 14 C7.34 14.66 6.68 15.32 6 16 C4.62763381 14.45346042 3.27761039 12.88707224 1.9375 11.3125 C1.18339844 10.44238281 0.42929688 9.57226562 -0.34765625 8.67578125 C-2 6 -2 6 -1.80859375 3.23046875 C-1 1 -1 1 0 0 Z " fill="#1C1C1C" transform="translate(212,175)"/>
<path d="M0 0 C2.10814567 4.21629134 2.17700355 6.39790775 2 11 C1.01 10.67 0.02 10.34 -1 10 C-1 8.68 -1 7.36 -1 6 C-1.66 5.67 -2.32 5.34 -3 5 C-2.67 6.32 -2.34 7.64 -2 9 C-3.32 9.33 -4.64 9.66 -6 10 C-5.67 8.68 -5.34 7.36 -5 6 C-6.65 6 -8.3 6 -10 6 C-8.60240095 9.54518884 -8.60240095 9.54518884 -7 13 C-8.65 12.67 -10.3 12.34 -12 12 C-12 8.37 -12 4.74 -12 1 C-6.06 0.505 -6.06 0.505 0 0 Z " fill="#181818" transform="translate(237,113)"/>
<path d="M0 0 C2.475 0.99 2.475 0.99 5 2 C3.35 6.62 1.7 11.24 0 16 C-1.65 14.35 -3.3 12.7 -5 11 C-4.8125 8.6875 -4.8125 8.6875 -4 7 C-4.99 7 -5.98 7 -7 7 C-7.66 7.66 -8.32 8.32 -9 9 C-9.99 7.68 -10.98 6.36 -12 5 C-11.30132812 4.72285156 -10.60265625 4.44570313 -9.8828125 4.16015625 C-8.97273437 3.79792969 -8.06265625 3.43570313 -7.125 3.0625 C-6.22007812 2.70285156 -5.31515625 2.34320313 -4.3828125 1.97265625 C-2.03862333 1.05098738 -2.03862333 1.05098738 0 0 Z " fill="#0A0A0A" transform="translate(196,37)"/>
<path d="M0 0 C1.32 0.33 2.64 0.66 4 1 C4.33 5.29 4.66 9.58 5 14 C3.68 14 2.36 14 1 14 C0.7525 13.2575 0.505 12.515 0.25 11.75 C-1.09147301 8.79875938 -2.60905526 7.15185026 -5 5 C-4.67 7.97 -4.34 10.94 -4 14 C-5.32 13.67 -6.64 13.34 -8 13 C-8 9.04 -8 5.08 -8 1 C-6.02 1 -4.04 1 -2 1 C-1.34 1.66 -0.68 2.32 0 3 C0 2.01 0 1.02 0 0 Z " fill="#1E1E1E" transform="translate(118,10)"/>
<path d="M0 0 C1.65 0 3.3 0 5 0 C5.99 3.63 6.98 7.26 8 11 C3.71 10.01 -0.58 9.02 -5 8 C-4.01 9.65 -3.02 11.3 -2 13 C-3.32 13 -4.64 13 -6 13 C-6.99 9.7 -7.98 6.4 -9 3 C-7.5975 3.144375 -6.195 3.28875 -4.75 3.4375 C-3.56664062 3.55931641 -3.56664062 3.55931641 -2.359375 3.68359375 C-0.17635361 3.97634993 1.8773182 4.42064419 4 5 C3.67 4.34 3.34 3.68 3 3 C2.01 2.67 1.02 2.34 0 2 C0 1.34 0 0.68 0 0 Z " fill="#171717" transform="translate(227,84)"/>
<path d="M0 0 C3.73884332 2.65654657 5.64978174 4.58110387 7 9 C6.01 9.495 6.01 9.495 5 10 C4.34 8.68 3.68 7.36 3 6 C2.67 6.33 2.34 6.66 2 7 C2.66 7.66 3.32 8.32 4 9 C3.01 9.66 2.02 10.32 1 11 C0.67 10.34 0.34 9.68 0 9 C-1.98 9.99 -1.98 9.99 -4 11 C-3.67 11.66 -3.34 12.32 -3 13 C-0.47266765 13.65555119 -0.47266765 13.65555119 2 14 C1.67 14.66 1.34 15.32 1 16 C-1.0625 16.625 -1.0625 16.625 -3 17 C-4.03295436 15.90716423 -5.05107835 14.80029421 -6.0625 13.6875 C-6.63097656 13.07261719 -7.19945312 12.45773438 -7.78515625 11.82421875 C-8.18605469 11.22222656 -8.58695313 10.62023437 -9 10 C-7.65396518 5.96189555 -5.34663277 4.52704924 -2 2 C-1.34 2 -0.68 2 0 2 C0 1.34 0 0.68 0 0 Z " fill="#141414" transform="translate(42,184)"/>
<path d="M0 0 C0.66 0 1.32 0 2 0 C2.33 1.65 2.66 3.3 3 5 C4.98 5 6.96 5 9 5 C8.505 5.37125 8.01 5.7425 7.5 6.125 C5.40244486 8.74694393 5.78256165 10.73842472 6 14 C5.21625 13.649375 4.4325 13.29875 3.625 12.9375 C2.75875 12.628125 1.8925 12.31875 1 12 C0.01 12.495 0.01 12.495 -1 13 C-0.67 13.66 -0.34 14.32 0 15 C-1.32 14.67 -2.64 14.34 -4 14 C-3.67 12.02 -3.34 10.04 -3 8 C-4.32 7.34 -5.64 6.68 -7 6 C-7 5.67 -7 5.34 -7 5 C-5.02 5 -3.04 5 -1 5 C-0.67 3.35 -0.34 1.7 0 0 Z " fill="#111000" transform="translate(125,100)"/>
<path d="M0 0 C4 4.5 4 4.5 4 9 C4.99 9.33 5.98 9.66 7 10 C5.73083275 12.53833449 4.58375191 12.89400901 2.0625 14.125 C1.35222656 14.47820312 0.64195312 14.83140625 -0.08984375 15.1953125 C-2 16 -2 16 -4 16 C-4.33 16.66 -4.66 17.32 -5 18 C-5.33 17.01 -5.66 16.02 -6 15 C-5.34 15 -4.68 15 -4 15 C-3.01 11.7 -2.02 8.4 -1 5 C-1.78375 5.495 -2.5675 5.99 -3.375 6.5 C-6 8 -6 8 -8 8 C-8 8.66 -8 9.32 -8 10 C-8.66 10 -9.32 10 -10 10 C-10.33 9.01 -10.66 8.02 -11 7 C-9.54462432 6.16151196 -8.08559627 5.32936066 -6.625 4.5 C-5.81289062 4.0359375 -5.00078125 3.571875 -4.1640625 3.09375 C-2 2 -2 2 0 2 C0 1.34 0 0.68 0 0 Z " fill="#0F0F0F" transform="translate(223,68)"/>
<path d="M0 0 C0.99 0 1.98 0 3 0 C4.32 3.96 5.64 7.92 7 12 C6.01 12.33 5.02 12.66 4 13 C3.2575 12.21625 2.515 11.4325 1.75 10.625 C-0.97242945 7.76871373 -0.97242945 7.76871373 -5 6 C-4.01 8.97 -3.02 11.94 -2 15 C-2.99 14.67 -3.98 14.34 -5 14 C-6.16796875 11.49609375 -6.16796875 11.49609375 -7.1875 8.4375 C-7.53167969 7.42558594 -7.87585938 6.41367188 -8.23046875 5.37109375 C-8.48441406 4.58863281 -8.73835937 3.80617187 -9 3 C-5.74825607 1.59384046 -3.5554083 1 0 1 C0 0.67 0 0.34 0 0 Z " fill="#131313" transform="translate(153,221)"/>
<path d="M0 0 C3.03852705 1.40976705 5.5939595 3.08870228 8.25 5.125 C8.95640625 5.66382813 9.6628125 6.20265625 10.390625 6.7578125 C10.92171875 7.16773438 11.4528125 7.57765625 12 8 C10.68 9.32 9.36 10.64 8 12 C7.34 11.34 6.68 10.68 6 10 C4.68 10 3.36 10 2 10 C2.33 11.65 2.66 13.3 3 15 C2.01 15.33 1.02 15.66 0 16 C-0.99 11.38 -1.98 6.76 -3 2 C-2.01 1.34 -1.02 0.68 0 0 Z " fill="#080808" transform="translate(182,207)"/>
<path d="M0 0 C5.94 3.465 5.94 3.465 12 7 C11.67 8.65 11.34 10.3 11 12 C6.38 12.66 1.76 13.32 -3 14 C-2.67 12.02 -2.34 10.04 -2 8 C-0.35 7.67 1.3 7.34 3 7 C2.67 6.01 2.34 5.02 2 4 C1.34 3.67 0.68 3.34 0 3 C0 2.01 0 1.02 0 0 Z " fill="#0A0A0A" transform="translate(224,139)"/>
<path d="M0 0 C0.66 0 1.32 0 2 0 C2.33 1.65 2.66 3.3 3 5 C4.98 5 6.96 5 9 5 C8.505 5.37125 8.01 5.7425 7.5 6.125 C5.40244486 8.74694393 5.78256165 10.73842472 6 14 C5.0925 13.62875 4.185 13.2575 3.25 12.875 C0.11902985 11.69640701 0.11902985 11.69640701 -2.375 12.875 C-2.91125 13.24625 -3.4475 13.6175 -4 14 C-3.67 12.02 -3.34 10.04 -3 8 C-5.475 7.01 -5.475 7.01 -8 6 C-8 5.67 -8 5.34 -8 5 C-5.69 5 -3.38 5 -1 5 C-0.67 3.35 -0.34 1.7 0 0 Z " fill="#100F00" transform="translate(64,74)"/>
<path d="M0 0 C0.99 0.33 1.98 0.66 3 1 C1.68 1.99 0.36 2.98 -1 4 C-0.67 4.66 -0.34 5.32 0 6 C0.33 5.34 0.66 4.68 1 4 C2.32 4.66 3.64 5.32 5 6 C3.68 6.33 2.36 6.66 1 7 C3.05233685 9.2477975 4.00667261 10.0022242 7 11 C7.33 9.02 7.66 7.04 8 5 C8.66 5.66 9.32 6.32 10 7 C9.79014782 9.64736593 9.21245709 10.77786261 7.37109375 12.703125 C6.73300781 13.21359375 6.09492187 13.7240625 5.4375 14.25 C4.79683594 14.77078125 4.15617187 15.2915625 3.49609375 15.828125 C3.00238281 16.21484375 2.50867187 16.6015625 2 17 C2 16.01 2 15.02 2 14 C1.443125 13.773125 0.88625 13.54625 0.3125 13.3125 C-2.63246684 11.64103234 -4.68156544 9.44723648 -7 7 C-4.69 4.69 -2.38 2.38 0 0 Z " fill="#111111" transform="translate(44,43)"/>
<path d="M0 0 C-0.33 0.66 -0.66 1.32 -1 2 C-2.65 1.67 -4.3 1.34 -6 1 C-6 1.99 -6 2.98 -6 4 C-5.01 4 -4.02 4 -3 4 C-2.67 3.34 -2.34 2.68 -2 2 C-1.67 3.32 -1.34 4.64 -1 6 C-2.32 5.67 -3.64 5.34 -5 5 C-4.67 6.98 -4.34 8.96 -4 11 C-1.52733235 10.65555119 -1.52733235 10.65555119 1 10 C1.33 9.34 1.66 8.68 2 8 C2 9.32 2 10.64 2 12 C-1.63 12.66 -5.26 13.32 -9 14 C-9.48828125 11.20052083 -9.9765625 8.40104167 -10.46484375 5.6015625 C-10.87712062 3.03090344 -10.87712062 3.03090344 -12 1 C-7.58774263 -0.47075246 -4.51718381 -1.36884358 0 0 Z " fill="#141414" transform="translate(105,13)"/>
<path d="M0 0 C3.96 0 7.92 0 12 0 C12 2.64 12 5.28 12 8 C8.04 8 4.08 8 0 8 C0 5.36 0 2.72 0 0 Z " fill="#070600" transform="translate(121,75)"/>
<path d="M0 0 C3.80881639 1.44472346 5.29742886 3.32603071 7 7 C6.67 7.99 6.34 8.98 6 10 C4 7 4 7 4 5 C3.01 5 2.02 5 1 5 C1.350625 5.61875 1.70125 6.2375 2.0625 6.875 C2.371875 7.57625 2.68125 8.2775 3 9 C2.67 9.66 2.34 10.32 2 11 C1.34 11 0.68 11 0 11 C0 9.68 0 8.36 0 7 C-1.65 7.66 -3.3 8.32 -5 9 C-4.67 9.99 -4.34 10.98 -4 12 C-1.49552484 13.21869929 -1.49552484 13.21869929 1 14 C-2 16 -2 16 -4 16 C-5.2890625 14.46875 -5.2890625 14.46875 -6.625 12.5 C-7.07101563 11.8503125 -7.51703125 11.200625 -7.9765625 10.53125 C-8.31429687 10.0259375 -8.65203125 9.520625 -9 9 C-7.48328036 4.44984107 -3.83108947 2.49942736 0 0 Z " fill="#121212" transform="translate(214,56)"/>
<path d="M0 0 C1.32 0.33 2.64 0.66 4 1 C5.45099951 8.13408094 5.45099951 8.13408094 3.4375 12 C1 14 1 14 -2 14.5625 C-5.72476048 13.86410741 -6.84743874 13.10925516 -9 10 C-9.75 6.25 -9.75 6.25 -10 3 C-8.35 2.34 -6.7 1.68 -5 1 C-5.66 3.64 -6.32 6.28 -7 9 C-2.65815798 8.81535634 -2.65815798 8.81535634 1 7 C1.19149081 3.36805359 1.19149081 3.36805359 0 0 Z " fill="#121212" transform="translate(22,140)"/>
<path d="M0 0 C0.82821226 2.35721952 1.12949427 3.6115172 0.328125 6.015625 C-0.02765625 6.75296875 -0.3834375 7.4903125 -0.75 8.25 C-6.57153613 22.10888186 -6.62960578 37.20060239 -7 52 C-7.33 52 -7.66 52 -8 52 C-12.28002068 34.25862397 -7.10375632 16.20759938 0 0 Z " fill="#293136" transform="translate(44,84)"/>
<path d="M0 0 C0.391875 0.639375 0.78375 1.27875 1.1875 1.9375 C3.38472296 4.43778819 4.75791433 4.64950425 8 5 C7.484375 5.556875 6.96875 6.11375 6.4375 6.6875 C4.70523302 8.94085007 4.70523302 8.94085007 5.3125 11.75 C5.6528125 12.86375 5.6528125 12.86375 6 14 C5.113125 13.62875 4.22625 13.2575 3.3125 12.875 C-0.40826005 11.89215772 -1.67438135 12.23937836 -5 14 C-4.34 12.02 -3.68 10.04 -3 8 C-5.475 7.01 -5.475 7.01 -8 6 C-8 5.67 -8 5.34 -8 5 C-6.576875 4.87625 -6.576875 4.87625 -5.125 4.75 C-1.89538209 4.34925077 -1.89538209 4.34925077 -0.625 1.9375 C-0.41875 1.298125 -0.2125 0.65875 0 0 Z " fill="#0E0D00" transform="translate(186,77)"/>
<path d="M0 0 C1.71767682 3.98188718 3.41037341 7.96479403 5 12 C4.01 12.33 3.02 12.66 2 13 C2 12.01 2 11.02 2 10 C1.071875 9.855625 0.14375 9.71125 -0.8125 9.5625 C-4 9 -4 9 -7 8 C-6.01 9.98 -5.02 11.96 -4 14 C-4.99 14 -5.98 14 -7 14 C-10.22265625 8.82421875 -10.22265625 8.82421875 -11 7 C-10.67 6.01 -10.34 5.02 -10 4 C-7.4375 2.8125 -7.4375 2.8125 -5 2 C-5 2.66 -5 3.32 -5 4 C-4.01 4 -3.02 4 -2 4 C-2 3.34 -2 2.68 -2 2 C-2.66 1.67 -3.32 1.34 -4 1 C-2 0 -2 0 0 0 Z " fill="#141414" transform="translate(73,23)"/>
<path d="M0 0 C-0.375 2.125 -0.375 2.125 -1 4 C-3.01822917 3.96744792 -5.03645833 3.93489583 -7.0546875 3.90234375 C-9.08185404 3.87350758 -9.08185404 3.87350758 -11 5 C-11 5.99 -11 6.98 -11 8 C-5.555 7.505 -5.555 7.505 0 7 C0.33 7.99 0.66 8.98 1 10 C-0.93398808 10.27585566 -2.87253909 10.51987415 -4.8125 10.75 C-6.43091797 10.95882812 -6.43091797 10.95882812 -8.08203125 11.171875 C-11 11 -11 11 -12.86328125 9.17578125 C-14.25560313 6.51075278 -14.45654218 4.96752418 -14 2 C-12.38371898 -0.09045811 -11.38165436 -0.89863369 -8.80859375 -1.58203125 C-8.02613281 -1.65808594 -7.24367187 -1.73414062 -6.4375 -1.8125 C-5.25994141 -1.94591797 -5.25994141 -1.94591797 -4.05859375 -2.08203125 C-2 -2 -2 -2 0 0 Z " fill="#101010" transform="translate(237,100)"/>
<path d="M0 0 C3.80635497 3.20760251 7.54563567 6.40746109 11 10 C10.01 10.33 9.02 10.66 8 11 C5.8125 9.5625 5.8125 9.5625 4 8 C1.69 10.31 -0.62 12.62 -3 15 C-4.65 13.35 -6.3 11.7 -8 10 C-6.88625 9.4225 -5.7725 8.845 -4.625 8.25 C-1.66807857 6.57739798 -0.07684279 5.35017758 1 2 C0.01 1.67 -0.98 1.34 -2 1 C-1.34 0.67 -0.68 0.34 0 0 Z " fill="#161616" transform="translate(50,193)"/>
<path d="M0 0 C2.46800047 1.15173355 4.04783565 2.04783565 6 4 C8.32275177 4.40047444 10.65739357 4.7397104 13 5 C13 6.98 13 8.96 13 11 C12.40832031 10.97679688 11.81664062 10.95359375 11.20703125 10.9296875 C6.66198041 10.82588536 3.14059941 10.86291643 -1 13 C-1 10.69 -1 8.38 -1 6 C0.65 6 2.3 6 4 6 C3.67 5.34 3.34 4.68 3 4 C2.01 3.67 1.02 3.34 0 3 C0 2.01 0 1.02 0 0 Z " fill="#181818" transform="translate(12,104)"/>
<path d="M0 0 C2.97379403 2.76870479 4.93235124 5.52259072 7 9 C7.66 9.33 8.32 9.66 9 10 C8.34 11.65 7.68 13.3 7 15 C5.22739369 14.54857225 3.4569632 14.08859477 1.6875 13.625 C0.70136719 13.36976562 -0.28476562 13.11453125 -1.30078125 12.8515625 C-4 12 -4 12 -7 10 C-5.68 8.68 -4.36 7.36 -3 6 C-1.02 6.66 0.96 7.32 3 8 C2.319375 7.236875 1.63875 6.47375 0.9375 5.6875 C0.298125 4.800625 -0.34125 3.91375 -1 3 C-0.67 2.01 -0.34 1.02 0 0 Z " fill="#131313" transform="translate(35,53)"/>
<path d="M0 0 C-0.33 2.31 -0.66 4.62 -1 7 C0.32 7 1.64 7 3 7 C1.125 10.875 1.125 10.875 0 12 C-2.375 12.25 -2.375 12.25 -5 12 C-6.8125 10.5 -6.8125 10.5 -8 9 C-7.67 8.01 -7.34 7.02 -7 6 C-5.35 6.33 -3.7 6.66 -2 7 C-2.66 5.02 -3.32 3.04 -4 1 C-7.3 0.67 -10.6 0.34 -14 0 C-13.67 -0.99 -13.34 -1.98 -13 -3 C-7.8052391 -4.94803534 -4.46329399 -2.58051489 0 0 Z " fill="#0D0000" transform="translate(140,168)"/>
<path d="M0 0 C3.63 0 7.26 0 11 0 C11.33 1.65 11.66 3.3 12 5 C10.68 4.01 9.36 3.02 8 2 C8.33 5.96 8.66 9.92 9 14 C6.69 14 4.38 14 2 14 C2.66 10.04 3.32 6.08 4 2 C2.68 2.33 1.36 2.66 0 3 C0 2.01 0 1.02 0 0 Z " fill="#1B1B1B" transform="translate(125,10)"/>
<path d="M0 0 C2.475 0.99 2.475 0.99 5 2 C4.34 4.64 3.68 7.28 3 10 C4.65 8.35 6.3 6.7 8 5 C8.99 5.33 9.98 5.66 11 6 C7.50640535 9.59634744 3.88901869 12.83451967 0 16 C-1.32 14.68 -2.64 13.36 -4 12 C-2.66666667 8 -1.33333333 4 0 0 Z " fill="#101010" transform="translate(182,26)"/>
<path d="M0 0 C2.97 0.99 5.94 1.98 9 3 C9.33 4.65 9.66 6.3 10 8 C9.01 7.01 8.02 6.02 7 5 C6.01 5.33 5.02 5.66 4 6 C4.99 6.33 5.98 6.66 7 7 C6.34 8.32 5.68 9.64 5 11 C5 10.01 5 9.02 5 8 C4.01 8 3.02 8 2 8 C1.34 9.98 0.68 11.96 0 14 C-2.475 13.01 -2.475 13.01 -5 12 C-4.72285156 11.46890625 -4.44570312 10.9378125 -4.16015625 10.390625 C-3.79792969 9.68421875 -3.43570313 8.9778125 -3.0625 8.25 C-2.52302734 7.20585937 -2.52302734 7.20585937 -1.97265625 6.140625 C-0.81077044 3.75454457 -0.81077044 3.75454457 0 0 Z " fill="#111111" transform="translate(164,17)"/>
<path d="M0 0 C0.33 0 0.66 0 1 0 C1 2.64 1 5.28 1 8 C1.66 8 2.32 8 3 8 C3 5.69 3 3.38 3 1 C3.99 1.33 4.98 1.66 6 2 C6 3.32 6 4.64 6 6 C8.475 6.99 8.475 6.99 11 8 C11 8.66 11 9.32 11 10 C9.35 10 7.7 10 6 10 C6 10.66 6 11.32 6 12 C0.25 11.125 0.25 11.125 -2 10 C-2.1953125 3.9453125 -2.1953125 3.9453125 -2 2 C-1.34 1.34 -0.68 0.68 0 0 Z " fill="#053B1D" transform="translate(139,193)"/>
<path d="M0 0 C2.23046875 -0.375 2.23046875 -0.375 5 0 C7.23828125 2.625 7.23828125 2.625 9.3125 6 C10.00988281 7.11375 10.70726563 8.2275 11.42578125 9.375 C11.94527344 10.24125 12.46476562 11.1075 13 12 C11.1875 13.0625 11.1875 13.0625 9 14 C5.23193471 12.74397824 4.78753493 11.48987433 2.8125 8.125 C2.28269531 7.24070313 1.75289063 6.35640625 1.20703125 5.4453125 C0 3 0 3 0 0 Z " fill="#0078C8" transform="translate(83,137)"/>
<path d="M0 0 C1.32 0.33 2.64 0.66 4 1 C3.01 2.485 3.01 2.485 2 4 C7.94 3.505 7.94 3.505 14 3 C14 5.31 14 7.62 14 10 C13.34 9.67 12.68 9.34 12 9 C10.29636178 8.77377919 8.58671299 8.59111527 6.875 8.4375 C5.96492187 8.35371094 5.05484375 8.26992187 4.1171875 8.18359375 C3.06917969 8.09271484 3.06917969 8.09271484 2 8 C2.33 9.32 2.66 10.64 3 12 C2.01 12 1.02 12 0 12 C0 8.04 0 4.08 0 0 Z " fill="#131313" transform="translate(10,118)"/>
<path d="M0 0 C4.29 0 8.58 0 13 0 C13.33 0.99 13.66 1.98 14 3 C16.31 3 18.62 3 21 3 C21 4.32 21 5.64 21 7 C18.36 7 15.72 7 13 7 C12.67 6.34 12.34 5.68 12 5 C9.97863961 4.4934364 9.97863961 4.4934364 7.625 4.3125 C6.83351563 4.22613281 6.04203125 4.13976562 5.2265625 4.05078125 C2.82523274 3.87060211 2.82523274 3.87060211 0 5 C0 3.35 0 1.7 0 0 Z " fill="#00426F" transform="translate(43,120)"/>
<path d="M0 0 C2.25 0.25 2.25 0.25 4 1 C3.2575 1.37125 2.515 1.7425 1.75 2.125 C-1.47464465 4.32362135 -3.00778279 6.67963799 -5 10 C-7.97 9.505 -7.97 9.505 -11 9 C-11.391875 9.598125 -11.78375 10.19625 -12.1875 10.8125 C-14.66393042 13.80129533 -17.57017634 15.28508817 -21 17 C-19.43632643 13.47761953 -17.30504111 10.72876006 -14.875 7.75 C-14.15054688 6.85796875 -13.42609375 5.9659375 -12.6796875 5.046875 C-11.84824219 4.03367187 -11.84824219 4.03367187 -11 3 C-10.01 3.66 -9.02 4.32 -8 5 C-4.98875756 4.80572629 -4.09297658 4.09878762 -2 1.875 C-1.34 1.25625 -0.68 0.6375 0 0 Z " fill="#121501" transform="translate(156,97)"/>
<path d="M0 0 C1.65 1.65 3.3 3.3 5 5 C3.576875 5.86625 3.576875 5.86625 2.125 6.75 C-0.76134098 8.82816551 -1.84095741 9.75468075 -3 13 C-0.03 13.495 -0.03 13.495 3 14 C-0.75 17 -0.75 17 -3 17 C-4.5078125 15.25 -4.5078125 15.25 -6.125 13 C-6.66382813 12.2575 -7.20265625 11.515 -7.7578125 10.75 C-8.16773438 10.1725 -8.57765625 9.595 -9 9 C-8.43410156 8.51789062 -7.86820313 8.03578125 -7.28515625 7.5390625 C-6.55167969 6.90742187 -5.81820312 6.27578125 -5.0625 5.625 C-4.33160156 4.99851562 -3.60070312 4.37203125 -2.84765625 3.7265625 C-0.91619094 2.12252286 -0.91619094 2.12252286 0 0 Z " fill="#111111" transform="translate(205,44)"/>
<path d="M0 0 C1.98 0 3.96 0 6 0 C5.34 3.96 4.68 7.92 4 12 C7.54321888 10.59624169 7.54321888 10.59624169 11 9 C10.34 10.65 9.68 12.3 9 14 C2.375 14.25 2.375 14.25 -1 12 C-0.67 8.04 -0.34 4.08 0 0 Z " fill="#0C0C0C" transform="translate(104,224)"/>
<path d="M0 0 C1.32 0.33 2.64 0.66 4 1 C4 1.66 4 2.32 4 3 C5.32 3 6.64 3 8 3 C7.67 6.3 7.34 9.6 7 13 C7.99 13.66 8.98 14.32 10 15 C8.25 15.6875 8.25 15.6875 6 16 C3.75 15 3.75 15 2 13 C1.75 9.3125 1.75 9.3125 2 6 C0.35 5.67 -1.3 5.34 -3 5 C-2.01 3.35 -1.02 1.7 0 0 Z " fill="#040404" transform="translate(87,219)"/>
<path d="M0 0 C3.29714793 0.32971479 4.6226839 0.6226839 7 3 C6.67028521 6.29714793 6.3773161 7.6226839 4 10 C0.70285207 9.67028521 -0.6226839 9.3773161 -3 7 C-2.67028521 3.70285207 -2.3773161 2.3773161 0 0 Z " fill="#0F0F0F" transform="translate(223,159)"/>
<path d="M0 0 C0.66 0 1.32 0 2 0 C2 0.66 2 1.32 2 2 C2.556875 2.268125 3.11375 2.53625 3.6875 2.8125 C6.19712523 4.10122647 8.59334236 5.52926478 11 7 C11.33 5.35 11.66 3.7 12 2 C12.66 2.33 13.32 2.66 14 3 C13.52797514 7.24822374 11.03344482 9.19989709 8 12 C4.7 9.36 1.4 6.72 -2 4 C-1.34 2.68 -0.68 1.36 0 0 Z " fill="#0F0F0F" transform="translate(203,187)"/>
<path d="M0 0 C5.81864106 4.2092297 9.20775914 9.01084482 12.89038086 15.06103516 C14.71258596 18.04992324 16.4946443 20.56599936 19 23 C19 23.66 19 24.32 19 25 C17.1796875 24.78515625 17.1796875 24.78515625 15 24 C13.5078125 21.99609375 13.5078125 21.99609375 12.125 19.4375 C6.64569785 9.71549542 6.64569785 9.71549542 -2 3 C-2 2.34 -2 1.68 -2 1 C-1.34 0.67 -0.68 0.34 0 0 Z " fill="#000C15" transform="translate(60,108)"/>
<path d="M0 0 C2.5 0.25 2.5 0.25 4.5 2.25 C4.75 4.75 4.75 4.75 4.5 7.25 C2.5 9.25 2.5 9.25 0 9.5 C-2.5 9.25 -2.5 9.25 -4.5 7.25 C-4.75 4.75 -4.75 4.75 -4.5 2.25 C-2.5 0.25 -2.5 0.25 0 0 Z " fill="#020202" transform="translate(22.5,158.75)"/>
<path d="M0 0 C4.29 0.33 8.58 0.66 13 1 C13 2.65 13 4.3 13 6 C9.04 5.67 5.08 5.34 1 5 C1.33 6.65 1.66 8.3 2 10 C2.99 10.33 3.98 10.66 5 11 C4.01 11.495 4.01 11.495 3 12 C2.01 11.34 1.02 10.68 0 10 C-0.41394695 6.63323148 -0.13087567 3.40276745 0 0 Z " fill="#060606" transform="translate(225,128)"/>
<path d="M0 0 C0 1.98 0 3.96 0 6 C-4.62 6.33 -9.24 6.66 -14 7 C-14 5.02 -14 3.04 -14 1 C-12.04175306 0.83232136 -10.08339945 0.66588795 -8.125 0.5 C-6.48917969 0.36078125 -6.48917969 0.36078125 -4.8203125 0.21875 C-3.21670436 0.09437042 -1.60842449 0 0 0 Z " fill="#151515" transform="translate(25,132)"/>
<path d="M0 0 C0.20496094 0.68707031 0.40992187 1.37414062 0.62109375 2.08203125 C0.89050781 2.98308594 1.15992187 3.88414063 1.4375 4.8125 C1.83775391 6.15248047 1.83775391 6.15248047 2.24609375 7.51953125 C2.80387873 9.35473055 3.39344575 11.18033726 4 13 C2.35 13.66 0.7 14.32 -1 15 C-1.45375 13.7625 -1.9075 12.525 -2.375 11.25 C-3.4384007 8.40754505 -4.55192483 5.67336954 -6 3 C-4.1132732 1.1132732 -2.83087714 0 0 0 Z " fill="#0C0C0C" transform="translate(90,15)"/>
<path d="M0 0 C0.91007812 0.00902344 1.82015625 0.01804688 2.7578125 0.02734375 C3.80582031 0.04474609 3.80582031 0.04474609 4.875 0.0625 C4.875 1.3825 4.875 2.7025 4.875 4.0625 C-6.56845503 6.64130677 -6.56845503 6.64130677 -12.125 6.0625 C-12.785 5.0725 -13.445 4.0825 -14.125 3.0625 C-11.155 3.5575 -11.155 3.5575 -8.125 4.0625 C-7.795 3.0725 -7.465 2.0825 -7.125 1.0625 C-4.60024538 -0.19987731 -2.81299534 -0.03606404 0 0 Z " fill="#005690" transform="translate(60.125,133.9375)"/>
<path d="M0 0 C1.9375 0.5625 1.9375 0.5625 4 2 C5.02147931 5.67732551 5.49770532 7.92163847 3.875 11.4375 C2 13 2 13 -0.6875 13.25 C-1.450625 13.1675 -2.21375 13.085 -3 13 C-3.33 12.34 -3.66 11.68 -4 11 C-3.01 10.34 -2.02 9.68 -1 9 C-0.6743294 7.05430321 -0.6743294 7.05430321 -0.875 4.9375 C-0.936875 2.9884375 -0.936875 2.9884375 -1 1 C-0.67 0.67 -0.34 0.34 0 0 Z " fill="#131313" transform="translate(155,14)"/>
<path d="M0 0 C0.99 0.33 1.98 0.66 3 1 C3 2.32 3 3.64 3 5 C1.68 5 0.36 5 -1 5 C-1.33 7.97 -1.66 10.94 -2 14 C-3.32 13.34 -4.64 12.68 -6 12 C-6 8.72724974 -5.70074844 6.153368 -5 3 C-4.360625 2.87625 -3.72125 2.7525 -3.0625 2.625 C-2.0415625 2.315625 -2.0415625 2.315625 -1 2 C-0.67 1.34 -0.34 0.68 0 0 Z " fill="#0E0E0E" transform="translate(64,206)"/>
<path d="M0 0 C2.1875 -0.5 2.1875 -0.5 5 0 C7.13759072 2.41959477 8.79629341 5.00219739 10 8 C9.67 8.99 9.34 9.98 9 11 C6.9375 11.6875 6.9375 11.6875 5 12 C4.16180842 10.37750059 3.3295884 8.75191503 2.5 7.125 C2.0359375 6.22007812 1.571875 5.31515625 1.09375 4.3828125 C0 2 0 2 0 0 Z " fill="#007ACC" transform="translate(78,145)"/>
<path d="M0 0 C0.45890625 0.39832031 0.9178125 0.79664063 1.390625 1.20703125 C4.52271585 3.91142062 7.63877459 6.57991771 11 9 C9.35 10.32 7.7 11.64 6 13 C4.821389 11.76125579 3.65747085 10.5085199 2.5 9.25 C1.8503125 8.55390625 1.200625 7.8578125 0.53125 7.140625 C-1 5 -1 5 -1 1 C-0.67 0.67 -0.34 0.34 0 0 Z " fill="#0A0A0A" transform="translate(199,192)"/>
<path d="M0 0 C3.5625 0.3125 3.5625 0.3125 5.5 1.375 C7.11729605 4.32418691 6.74880138 7.02117559 6.5625 10.3125 C5.9025 9.9825 5.2425 9.6525 4.5625 9.3125 C4.5625 8.3225 4.5625 7.3325 4.5625 6.3125 C3.10513913 6.11758548 1.64655407 5.93180642 0.1875 5.75 C-1.03066406 5.59337891 -1.03066406 5.59337891 -2.2734375 5.43359375 C-4.48649186 5.13012672 -4.48649186 5.13012672 -6.4375 6.3125 C-5.55427706 1.8963853 -4.77389749 0.43399068 0 0 Z " fill="#090909" transform="translate(29.4375,67.6875)"/>
<path d="M0 0 C0 0.66 0 1.32 0 2 C-1.2065625 2.6496875 -1.2065625 2.6496875 -2.4375 3.3125 C-5.19209636 4.76593301 -5.19209636 4.76593301 -5.9375 7.5 C-6.24621573 10.25394157 -6.24621573 10.25394157 -4 13 C-6.86724686 12.42655063 -7.8614515 12.1385485 -10 10 C-10.54587156 3.99541284 -10.54587156 3.99541284 -8.9375 1.0625 C-5.98831309 -0.55479605 -3.29132441 -0.18630138 0 0 Z " fill="#070707" transform="translate(74,211)"/>
<path d="M0 0 C4.62 0 9.24 0 14 0 C10 3 10 3 6 3 C5.67 3.66 5.34 4.32 5 5 C4.34 4.67 3.68 4.34 3 4 C3 4.66 3 5.32 3 6 C0.36 6 -2.28 6 -5 6 C-5 5.34 -5 4.68 -5 4 C-4.34 4 -3.68 4 -3 4 C-3 3.34 -3 2.68 -3 2 C-2.01 2 -1.02 2 0 2 C0 1.34 0 0.68 0 0 Z " fill="#730000" transform="translate(147,163)"/>
<path d="M0 0 C0.66 0 1.32 0 2 0 C3.5078125 1.609375 3.5078125 1.609375 5.125 3.75 C5.66382813 4.44609375 6.20265625 5.1421875 6.7578125 5.859375 C8 8 8 8 8 12 C7.01 12.33 6.02 12.66 5 13 C2.69 10.03 0.38 7.06 -2 4 C-1.34 2.68 -0.68 1.36 0 0 Z " fill="#080808" transform="translate(51,36)"/>
<path d="M0 0 C0.33 0.66 0.66 1.32 1 2 C2.32 1.67 3.64 1.34 5 1 C5.1875 4.375 5.1875 4.375 5 8 C1.77208445 10.1519437 0.71599191 10.20086443 -3 10 C-3.66 8.68 -4.32 7.36 -5 6 C-3.35 5.67 -1.7 5.34 0 5 C-0.2784375 4.0409375 -0.2784375 4.0409375 -0.5625 3.0625 C-0.706875 2.381875 -0.85125 1.70125 -1 1 C-0.67 0.67 -0.34 0.34 0 0 Z " fill="#00281D" transform="translate(75,178)"/>
<path d="M0 0 C1.65 0 3.3 0 5 0 C5 4.29 5 8.58 5 13 C3.02 13 1.04 13 -1 13 C-0.67 8.71 -0.34 4.42 0 0 Z " fill="#050505" transform="translate(117,226)"/>
<path d="M0 0 C0.66 0 1.32 0 2 0 C2.33 0.99 2.66 1.98 3 3 C4.65 3.33 6.3 3.66 8 4 C7.67 5.32 7.34 6.64 7 8 C4.75 8.6875 4.75 8.6875 2 9 C-0.3125 7.5625 -0.3125 7.5625 -2 6 C-1.125 1.125 -1.125 1.125 0 0 Z " fill="#EBEBEB" transform="translate(20,85)"/>
<path d="M0 0 C3 1 3 1 4 3 C4.3125 5.9375 4.3125 5.9375 4 9 C2.25 10.875 2.25 10.875 0 12 C-1.32 12 -2.64 12 -4 12 C-3.34 10.68 -2.68 9.36 -2 8 C-1.34 8 -0.68 8 0 8 C0 5.36 0 2.72 0 0 Z " fill="#003626" transform="translate(114,195)"/>
<path d="M0 0 C0.99 0.66 1.98 1.32 3 2 C3.4375 5.4375 3.4375 5.4375 3 9 C1.25 10.9375 1.25 10.9375 -1 12 C-2.32 12 -3.64 12 -5 12 C-5 11.01 -5 10.02 -5 9 C-3.68 8.67 -2.36 8.34 -1 8 C-0.67 5.36 -0.34 2.72 0 0 Z " fill="#003226" transform="translate(92,187)"/>
<path d="M0 0 C0.99 0.66 1.98 1.32 3 2 C2.6875 5.375 2.6875 5.375 2 9 C-1.22791555 11.1519437 -2.28400809 11.20086443 -6 11 C-6 10.01 -6 9.02 -6 8 C-4.35 7.67 -2.7 7.34 -1 7 C-0.67 4.69 -0.34 2.38 0 0 Z " fill="#003023" transform="translate(82,181)"/>
<path d="M0 0 C0.99 0 1.98 0 3 0 C4.19963643 2.43218059 5.38484438 4.86970578 6.5625 7.3125 C6.90474609 8.00279297 7.24699219 8.69308594 7.59960938 9.40429688 C10.11328125 14.66015625 10.11328125 14.66015625 9 18 C5.83139145 15.34521986 4.49698412 12.16000194 2.8125 8.4375 C2.28269531 7.28121094 1.75289063 6.12492188 1.20703125 4.93359375 C0 2 0 2 0 0 Z " fill="#005187" transform="translate(71,139)"/>
<path d="M0 0 C0.99 0 1.98 0 3 0 C4.23076923 5.41538462 4.23076923 5.41538462 3.0625 8.375 C2.711875 8.91125 2.36125 9.4475 2 10 C0.68 9.67 -0.64 9.34 -2 9 C-2.25 3.375 -2.25 3.375 0 0 Z " fill="#F1F1F1" transform="translate(95,223)"/>
<path d="M0 0 C0.66 0 1.32 0 2 0 C2 2.64 2 5.28 2 8 C3.32 8.66 4.64 9.32 6 10 C6 10.66 6 11.32 6 12 C0.25 11.25 0.25 11.25 -2 9 C-2.34490322 4.94738713 -2.30163882 3.45245824 0 0 Z " fill="#132513" transform="translate(132,195)"/>
<path d="M0 0 C0.99 0 1.98 0 3 0 C3.33 1.98 3.66 3.96 4 6 C3.01 6 2.02 6 1 6 C0.67 4.02 0.34 2.04 0 0 Z M-1 2 C-1 3.32 -1 4.64 -1 6 C-0.34 6.33 0.32 6.66 1 7 C0.67 7.99 0.34 8.98 0 10 C-1.98 9.01 -3.96 8.02 -6 7 C-6 6.01 -6 5.02 -6 4 C-3 2 -3 2 -1 2 Z " fill="#DFDFDF" transform="translate(215,61)"/>
<path d="M0 0 C0.99 0 1.98 0 3 0 C3.25 2.75 3.25 2.75 3 6 C1 8.375 1 8.375 -1 10 C-1.99 9.34 -2.98 8.68 -4 8 C-2.25 2.25 -2.25 2.25 0 0 Z " fill="#EDEDED" transform="translate(71,213)"/>
<path d="M0 0 C2.24197388 1.77489599 2.94326323 2.62175489 3.375 5.5 C3 8 3 8 1.9375 9.8125 C-0.99268751 11.60842137 -3.6472953 11.18977574 -7 11 C-6.34 10.01 -5.68 9.02 -5 8 C-3.68 8 -2.36 8 -1 8 C-1.020625 7.05125 -1.04125 6.1025 -1.0625 5.125 C-1 2 -1 2 0 0 Z " fill="#003625" transform="translate(87,184)"/>
<path d="M0 0 C6.75 0.875 6.75 0.875 9 2 C9 3.32 9 4.64 9 6 C3.58461538 6.36923077 3.58461538 6.36923077 0.625 4.5 C0.08875 4.005 -0.4475 3.51 -1 3 C-0.67 2.01 -0.34 1.02 0 0 Z " fill="#F2F2F2" transform="translate(25,72)"/>
<path d="M0 0 C2 2 2 2 2.375 4.375 C3.14485452 7.60838899 4.53229941 8.85071239 7 11 C0.25 10.25 0.25 10.25 -2 8 C-2.25 5 -2.25 5 -2 2 C-1.34 1.34 -0.68 0.68 0 0 Z " fill="#0A2F18" transform="translate(149,190)"/>
<path d="M0 0 C0.66 0.33 1.32 0.66 2 1 C1.6875 3.875 1.6875 3.875 1 7 C-2 9 -2 9 -4.6875 8.625 C-5.450625 8.41875 -6.21375 8.2125 -7 8 C-7 7.01 -7 6.02 -7 5 C-6.401875 4.9175 -5.80375 4.835 -5.1875 4.75 C-2.4033704 3.79544128 -1.56688858 2.42867729 0 0 Z " fill="#003938" transform="translate(57,154)"/>
<path d="M0 0 C2 2 2 2 2.125 4.625 C2.08375 5.40875 2.0425 6.1925 2 7 C3.2065625 7.185625 3.2065625 7.185625 4.4375 7.375 C5.7059375 7.684375 5.7059375 7.684375 7 8 C7.33 8.66 7.66 9.32 8 10 C5.1875 10.625 5.1875 10.625 2 11 C1.01 10.34 0.02 9.68 -1 9 C-1.47114738 6.2572492 -1.17805784 3.80441103 -1 1 C-0.67 0.67 -0.34 0.34 0 0 Z " fill="#074120" transform="translate(165,181)"/>
<path d="M0 0 C3.3 0.33 6.6 0.66 10 1 C8 5 8 5 7 6 C4.625 6.25 4.625 6.25 2 6 C0.1875 4.5 0.1875 4.5 -1 3 C-0.67 2.01 -0.34 1.02 0 0 Z " fill="#00080D" transform="translate(105,174)"/>
<path d="M0 0 C-0.33 2.31 -0.66 4.62 -1 7 C-4 3.25 -4 3.25 -4 1 C-7.3 0.67 -10.6 0.34 -14 0 C-13.67 -0.99 -13.34 -1.98 -13 -3 C-7.8052391 -4.94803534 -4.46329399 -2.58051489 0 0 Z " fill="#320000" transform="translate(140,168)"/>
<path d="M0 0 C0.66 0 1.32 0 2 0 C1.6875 3.375 1.6875 3.375 1 7 C-2 9 -2 9 -4.6875 8.625 C-5.450625 8.41875 -6.21375 8.2125 -7 8 C-7 7.01 -7 6.02 -7 5 C-5.35 5 -3.7 5 -2 5 C-1.34 3.35 -0.68 1.7 0 0 Z " fill="#003329" transform="translate(53,149)"/>
<path d="M0 0 C3.7253437 0.51405935 5.71987487 1.1974905 8.3125 3.9375 C8.82425781 4.46214844 9.33601563 4.98679688 9.86328125 5.52734375 C11 7 11 7 11 9 C8.70703125 9.28125 8.70703125 9.28125 6 9 C4.19921875 7.03125 4.19921875 7.03125 2.6875 4.5 C2.17574219 3.6646875 1.66398437 2.829375 1.13671875 1.96875 C0.76160156 1.3190625 0.38648437 0.669375 0 0 Z " fill="#007ACC" transform="translate(90,134)"/>
<path d="M0 0 C0.99 0.33 1.98 0.66 3 1 C3.125 4.375 3.125 4.375 3 8 C2.34 8.66 1.68 9.32 1 10 C0.01 10 -0.98 10 -2 10 C-2.1953125 3.9453125 -2.1953125 3.9453125 -2 2 C-1.34 1.34 -0.68 0.68 0 0 Z " fill="#F5F5F5" transform="translate(152,15)"/>
<path d="M0 0 C2.1519437 3.22791555 2.20086443 4.28400809 2 8 C2.99 8.33 3.98 8.66 5 9 C5 9.66 5 10.32 5 11 C2.625 11.125 2.625 11.125 0 11 C-2 9 -2 9 -2.25 6.0625 C-2 3 -2 3 0 0 Z " fill="#0B3219" transform="translate(155,187)"/>
<path d="M0 0 C2 2 2 2 2.125 5.125 C2.08375 6.07375 2.0425 7.0225 2 8 C2.804375 8.12375 3.60875 8.2475 4.4375 8.375 C5.283125 8.58125 6.12875 8.7875 7 9 C7.33 9.66 7.66 10.32 8 11 C4.625 11.125 4.625 11.125 1 11 C-1 9 -1 9 -1.23046875 7.08984375 C-1.11111111 1.11111111 -1.11111111 1.11111111 0 0 Z " fill="#093219" transform="translate(160,184)"/>
<path d="M0 0 C1.98 0.99 1.98 0.99 4 2 C5.25541557 5.76624671 4.37061958 7.37188934 3 11 C2.01 10.67 1.02 10.34 0 10 C0 6.7 0 3.4 0 0 Z " fill="#DDDDDD" transform="translate(130,227)"/>
<path d="M0 0 C1.5 1.3125 1.5 1.3125 3 3 C3 3.99 3 4.98 3 6 C4.65 6 6.3 6 8 6 C8.33 6.66 8.66 7.32 9 8 C2.57451737 9.33359073 2.57451737 9.33359073 0.0625 7.875 C-1.3190465 5.43697676 -1.29044498 3.7592273 -1 1 C-0.67 0.67 -0.34 0.34 0 0 Z " fill="#112814" transform="translate(187,159)"/>
<path d="M0 0 C0.53625 0.61875 1.0725 1.2375 1.625 1.875 C4.31103023 4.2782902 6.55414562 5.06022153 10 6 C9.67 6.66 9.34 7.32 9 8 C6.125 8.8125 6.125 8.8125 3 9 C1.125 7.9375 1.125 7.9375 0 6 C-0.1875 2.8125 -0.1875 2.8125 0 0 Z " fill="#162914" transform="translate(190,154)"/>
<path d="M0 0 C0.66 0.33 1.32 0.66 2 1 C1.25 6.75 1.25 6.75 -1 9 C-4.125 9.125 -4.125 9.125 -7 9 C-7 8.01 -7 7.02 -7 6 C-5.35 6 -3.7 6 -2 6 C-1.855625 5.195625 -1.71125 4.39125 -1.5625 3.5625 C-1 1 -1 1 0 0 Z " fill="#00291A" transform="translate(64,164)"/>
<path d="M0 0 C0.66 0.33 1.32 0.66 2 1 C1.67 3.31 1.34 5.62 1 8 C-2.375 8.625 -2.375 8.625 -6 9 C-6.66 8.34 -7.32 7.68 -8 7 C-7 6 -7 6 -4.4375 5.9375 C-3.2309375 5.9684375 -3.2309375 5.9684375 -2 6 C-1.855625 5.38125 -1.71125 4.7625 -1.5625 4.125 C-1 2 -1 2 0 0 Z " fill="#003020" transform="translate(60,159)"/>
<path d="M0 0 C1.5 1.375 1.5 1.375 3 3 C3 3.66 3 4.32 3 5 C4.98 5 6.96 5 9 5 C8.67 5.99 8.34 6.98 8 8 C4.625 8.1875 4.625 8.1875 1 8 C-1 5 -1 5 -0.625 2.3125 C-0.41875 1.549375 -0.2125 0.78625 0 0 Z " fill="#112914" transform="translate(194,149)"/>
<path d="M0 0 C3.465 1.485 3.465 1.485 7 3 C6.67 4.98 6.34 6.96 6 9 C5.34 9 4.68 9 4 9 C4 8.01 4 7.02 4 6 C2.02 6 0.04 6 -2 6 C-1.34 4.02 -0.68 2.04 0 0 Z " fill="#0F0F0F" transform="translate(24,83)"/>
<path d="M0 0 C3.96 0.33 7.92 0.66 12 1 C11.67 1.99 11.34 2.98 11 4 C4.43507888 4.78441153 -1.46837378 5.10914408 -8 4 C-8.33 4.66 -8.66 5.32 -9 6 C-9 5.01 -9 4.02 -9 3 C-4.545 2.505 -4.545 2.505 0 2 C0 1.34 0 0.68 0 0 Z " fill="#534E00" transform="translate(115,53)"/>
<path d="M0 0 C1.74627478 2.61941217 2.38722388 4.03824877 3 7 C4.65 7.33 6.3 7.66 8 8 C7.67 8.66 7.34 9.32 7 10 C4.6568787 9.74438677 2.32156597 9.40729228 0 9 C-1.36623674 6.26752652 -1.128426 4.01801098 -1 1 C-0.67 0.67 -0.34 0.34 0 0 Z " fill="#0E2914" transform="translate(169,178)"/>
<path d="M0 0 C2.475 0.99 2.475 0.99 5 2 C5 2.99 5 3.98 5 5 C6.53786305 8.22383452 6.53786305 8.22383452 9 11 C12.13265479 11.9688059 12.13265479 11.9688059 15 12 C14.505 12.433125 14.01 12.86625 13.5 13.3125 C11.66781808 14.99740483 11.66781808 14.99740483 12 18 C10.36763346 15.94297722 8.74412995 13.87990147 7.125 11.8125 C6.43470703 10.9452832 6.43470703 10.9452832 5.73046875 10.06054688 C3.21199731 6.83033351 1.29255389 3.9445179 0 0 Z " fill="#002035" transform="translate(87,131)"/>
<path d="M0 0 C0.99 0.33 1.98 0.66 3 1 C-0.43361902 4.63559661 -3.7973607 7.36113346 -8 10 C-8.33 9.01 -8.66 8.02 -9 7 C-7.57277341 5.8001722 -6.13284224 4.6154424 -4.6875 3.4375 C-3.88699219 2.77621094 -3.08648437 2.11492187 -2.26171875 1.43359375 C-1.51535156 0.96050781 -0.76898438 0.48742187 0 0 Z " fill="#E6E6E6" transform="translate(40,183)"/>
<path d="M0 0 C1.37562854 1.28965176 2.70766393 2.62689293 4 4 C4 4.66 4 5.32 4 6 C5.32 6 6.64 6 8 6 C8 6.99 8 7.98 8 9 C5.125 9.125 5.125 9.125 2 9 C0 7 0 7 -0.125 3.375 C-0.08375 2.26125 -0.0425 1.1475 0 0 Z " fill="#102A15" transform="translate(183,164)"/>
<path d="M0 0 C3.59905908 0.55550695 4.99909799 1.74887248 7.25 4.5625 C8.03117188 5.52349609 8.03117188 5.52349609 8.828125 6.50390625 C9.21484375 6.99761719 9.6015625 7.49132812 10 8 C9.34 8.66 8.68 9.32 8 10 C6.33333333 8.33333333 4.66666667 6.66666667 3 5 C2.401875 4.443125 1.80375 3.88625 1.1875 3.3125 C0 2 0 2 0 0 Z " fill="#EBEBEB" transform="translate(196,197)"/>
<path d="M0 0 C4.60139641 1.48868707 7.50227094 3.74629855 11 7 C11 7.66 11 8.32 11 9 C6.32197941 8.72482232 4.25361247 6.66806114 1.13671875 3.47265625 C0 2 0 2 0 0 Z " fill="#E6E6E6" transform="translate(200,191)"/>
<path d="M0 0 C4.75475795 2.30945386 7.5158762 5.41838646 10 10 C10.8125 13.4375 10.8125 13.4375 11 16 C4.37795276 9.60629921 4.37795276 9.60629921 3.5 5.875 C3.11426598 3.59876637 3.11426598 3.59876637 0 2 C0 1.34 0 0.68 0 0 Z " fill="#004370" transform="translate(84,131)"/>
<path d="M0 0 C0.391875 0.515625 0.78375 1.03125 1.1875 1.5625 C2.95907597 3.30002265 2.95907597 3.30002265 5.625 2.8125 C8.16552003 2.25355766 8.16552003 2.25355766 9 0 C9.66 1.32 10.32 2.64 11 4 C9.02 4.33 7.04 4.66 5 5 C5.66 7.31 6.32 9.62 7 12 C3.71534104 9.20803989 1.98678042 5.76803183 0 2 C0 1.34 0 0.68 0 0 Z " fill="#00192B" transform="translate(87,147)"/>
<path d="M0 0 C0.99 0.33 1.98 0.66 3 1 C3 1.99 3 2.98 3 4 C4.65 4 6.3 4 8 4 C8.33 4.66 8.66 5.32 9 6 C2.25 7.125 2.25 7.125 0 6 C0 4.02 0 2.04 0 0 Z " fill="#0B3018" transform="translate(180,170)"/>
<path d="M0 0 C0 0.99 0 1.98 0 3 C-0.94875 3.12375 -1.8975 3.2475 -2.875 3.375 C-6.08667191 3.71687177 -6.08667191 3.71687177 -8 6 C-8.99 4.68 -9.98 3.36 -11 2 C-9.73392393 1.46770674 -8.46189588 0.94955456 -7.1875 0.4375 C-6.47980469 0.14746094 -5.77210938 -0.14257812 -5.04296875 -0.44140625 C-3 -1 -3 -1 0 0 Z " fill="#3A3A3A" transform="translate(195,40)"/>
<path d="M0 0 C0.66 1.32 1.32 2.64 2 4 C7.445 3.505 7.445 3.505 13 3 C13.33 3.99 13.66 4.98 14 6 C12.04310341 6.22142255 10.08438048 6.4267568 8.125 6.625 C6.48917969 6.79902344 6.48917969 6.79902344 4.8203125 6.9765625 C3.42425781 6.98816406 3.42425781 6.98816406 2 7 C0 5 0 5 -0.125 2.375 C-0.08375 1.59125 -0.0425 0.8075 0 0 Z " fill="#161616" transform="translate(224,104)"/>
<path d="M0 0 C0.99 0.33 1.98 0.66 3 1 C3 2.32 3 3.64 3 5 C4.32 5.33 5.64 5.66 7 6 C7 6.66 7 7.32 7 8 C1.125 7.125 1.125 7.125 0 6 C-0.04080783 4.00041636 -0.04254356 1.99954746 0 0 Z " fill="#034321" transform="translate(142,194)"/>
<path d="M0 0 C0.33 0.66 0.66 1.32 1 2 C1.99 2.33 2.98 2.66 4 3 C4 4.32 4 5.64 4 7 C1.36 7.33 -1.28 7.66 -4 8 C-4.33 7.34 -4.66 6.68 -5 6 C-3.35 5.67 -1.7 5.34 0 5 C-0.2784375 4.0409375 -0.2784375 4.0409375 -0.5625 3.0625 C-0.706875 2.381875 -0.85125 1.70125 -1 1 C-0.67 0.67 -0.34 0.34 0 0 Z " fill="#005758" transform="translate(75,178)"/>
<path d="M0 0 C2.72426311 2.35277269 3.8141763 4.62496331 5 8 C3.35 8 1.7 8 0 8 C-0.66 6.02 -1.32 4.04 -2 2 C-1.34 1.34 -0.68 0.68 0 0 Z " fill="#004675" transform="translate(110,167)"/>
<path d="M0 0 C0 0.99 0 1.98 0 3 C-4.95 2.67 -9.9 2.34 -15 2 C-15 1.67 -15 1.34 -15 1 C-9.9752761 0.37470103 -5.07471573 -0.13012092 0 0 Z " fill="#030300" transform="translate(155,55)"/>
<path d="M0 0 C1.5 1.25 1.5 1.25 3 3 C3 4.32 3 5.64 3 7 C4.32 7.33 5.64 7.66 7 8 C6 9 6 9 3.4375 9.0625 C2.633125 9.041875 1.82875 9.02125 1 9 C-0.4783226 6.04335481 -0.06032783 3.25770263 0 0 Z " fill="#07381C" transform="translate(172,175)"/>
<path d="M0 0 C0.66 0.33 1.32 0.66 2 1 C-0.55738409 5.47542216 -4.4792579 6.98123631 -9 9 C-9.33 8.01 -9.66 7.02 -10 6 C-9.36191406 5.65066406 -8.72382813 5.30132812 -8.06640625 4.94140625 C-7.24011719 4.48636719 -6.41382813 4.03132812 -5.5625 3.5625 C-4.73878906 3.11003906 -3.91507813 2.65757812 -3.06640625 2.19140625 C-1.07691202 1.16337603 -1.07691202 1.16337603 0 0 Z " fill="#161616" transform="translate(33,171)"/>
<path d="M0 0 C2.35981813 0.93578995 4.69631264 1.93347808 7 3 C7 3.33 7 3.66 7 4 C3.04 4 -0.92 4 -5 4 C-2 1 -2 1 0 0 Z " fill="#000A12" transform="translate(116,164)"/>
<path d="M0 0 C3.465 1.98 3.465 1.98 7 4 C6.01 4.99 5.02 5.98 4 7 C1.37098712 5.47793991 -0.84365964 4.15634036 -3 2 C-2.01 1.34 -1.02 0.68 0 0 Z " fill="#E4D601" transform="translate(126,111)"/>
<path d="M0 0 C0.66 0.33 1.32 0.66 2 1 C2 1.66 2 2.32 2 3 C-3.75 6 -3.75 6 -6 6 C-6 6.66 -6 7.32 -6 8 C-6.66 8 -7.32 8 -8 8 C-8.33 7.01 -8.66 6.02 -9 5 C-7.54735962 4.1361871 -6.0876837 3.28419546 -4.625 2.4375 C-3.40683594 1.72400391 -3.40683594 1.72400391 -2.1640625 0.99609375 C-1.44992188 0.66738281 -0.73578125 0.33867188 0 0 Z " fill="#242424" transform="translate(221,70)"/>
<path d="M0 0 C3.2910841 3.60957611 4.54663921 6.12637153 5 11 C3.02 10.34 1.04 9.68 -1 9 C0.32 8.67 1.64 8.34 3 8 C2.01 7.34 1.02 6.68 0 6 C-0.75 4 -0.75 4 -1 2 C-0.67 1.34 -0.34 0.68 0 0 Z " fill="#004C80" transform="translate(87,149)"/>
<path d="M0 0 C2.97 1.65 5.94 3.3 9 5 C9 5.99 9 6.98 9 8 C7.68 8 6.36 8 5 8 C5 7.01 5 6.02 5 5 C2.525 4.01 2.525 4.01 0 3 C0 2.01 0 1.02 0 0 Z " fill="#373737" transform="translate(224,139)"/>
<path d="M0 0 C0.66 0.33 1.32 0.66 2 1 C1.979375 1.928125 1.95875 2.85625 1.9375 3.8125 C1.84230396 7.02286011 1.84230396 7.02286011 3 10 C2.01 10.33 1.02 10.66 0 11 C-1.125 3.375 -1.125 3.375 0 0 Z " fill="#363636" transform="translate(182,212)"/>
<path d="M0 0 C0.66 0.66 1.32 1.32 2 2 C1.625 5.125 1.625 5.125 1 8 C0.01 8.33 -0.98 8.66 -2 9 C-1.125 2.25 -1.125 2.25 0 0 Z " fill="#003122" transform="translate(71,171)"/>
<path d="M0 0 C0.721875 0.268125 1.44375 0.53625 2.1875 0.8125 C2.1875 1.4725 2.1875 2.1325 2.1875 2.8125 C-1.1125 3.4725 -4.4125 4.1325 -7.8125 4.8125 C-3.50480769 -0.23365385 -3.50480769 -0.23365385 0 0 Z " fill="#003A61" transform="translate(62.8125,135.1875)"/>
<path d="M0 0 C0.66 0 1.32 0 2 0 C7 5.47619048 7 5.47619048 7 8 C4.24542282 7.62005832 3.17979426 7.1926367 1.25 5.125 C0 3 0 3 0 0 Z " fill="#001726" transform="translate(72,125)"/>
<path d="M0 0 C-0.33 0.99 -0.66 1.98 -1 3 C-3.31 2.67 -5.62 2.34 -8 2 C-8 1.34 -8 0.68 -8 0 C-4.71023192 -1.09658936 -3.28696233 -0.79953138 0 0 Z " fill="#002945" transform="translate(65,124)"/>
<path d="M0 0 C3.03869411 1.51934706 3.64410306 3.98004772 5 7 C5 7.66 5 8.32 5 9 C4.01 9.33 3.02 9.66 2 10 C1.01 7.03 0.02 4.06 -1 1 C-0.67 0.67 -0.34 0.34 0 0 Z " fill="#2B2B2B" transform="translate(166,221)"/>
<path d="M0 0 C3 1 3 1 4.25 2.875 C5 5 5 5 4 8 C2 6.25 2 6.25 0 4 C0 2.68 0 1.36 0 0 Z " fill="#00353B" transform="translate(45,145)"/>
<path d="M0 0 C2.31 0 4.62 0 7 0 C7.33 1.32 7.66 2.64 8 4 C7.236875 3.979375 6.47375 3.95875 5.6875 3.9375 C2.89814214 3.87057159 2.89814214 3.87057159 0 5 C0 3.35 0 1.7 0 0 Z " fill="#002036" transform="translate(43,120)"/>
<path d="M0 0 C0.66 0.66 1.32 1.32 2 2 C1.34 2 0.68 2 0 2 C0.33 2.99 0.66 3.98 1 5 C0.67 5.66 0.34 6.32 0 7 C-1.32 7 -2.64 7 -4 7 C-3.43628586 3.73045798 -2.50037734 2.17424117 0 0 Z " fill="#717171" transform="translate(196,195)"/>
<path d="M0 0 C3.625 -0.1875 3.625 -0.1875 7 0 C7 0.66 7 1.32 7 2 C4.04335481 3.4783226 1.25770263 3.06032783 -2 3 C-1.34 2.01 -0.68 1.02 0 0 Z " fill="#003F37" transform="translate(94,198)"/>
<path d="M0 0 C0.66 0 1.32 0 2 0 C2 2.64 2 5.28 2 8 C1.01 8 0.02 8 -1 8 C-0.67 5.36 -0.34 2.72 0 0 Z " fill="#0D381C" transform="translate(132,195)"/>
<path d="M0 0 C0.33 0 0.66 0 1 0 C1 1.65 1 3.3 1 5 C2.2065625 5.185625 2.2065625 5.185625 3.4375 5.375 C4.7059375 5.684375 4.7059375 5.684375 6 6 C6.33 6.66 6.66 7.32 7 8 C5.02 8.33 3.04 8.66 1 9 C1.66 8.67 2.32 8.34 3 8 C3 7.34 3 6.68 3 6 C2.01 6 1.02 6 0 6 C0 4.02 0 2.04 0 0 Z " fill="#141E0F" transform="translate(166,183)"/>
<path d="M0 0 C0 0.66 0 1.32 0 2 C-2.64 2 -5.28 2 -8 2 C-8 1.34 -8 0.68 -8 0 C-5.13822943 -1.43088528 -3.06624227 -0.59991697 0 0 Z " fill="#870000" transform="translate(150,167)"/>
<path d="M0 0 C0.33 0 0.66 0 1 0 C1.33 2.31 1.66 4.62 2 7 C2.66 7 3.32 7 4 7 C4.33 7.99 4.66 8.98 5 10 C3.68 10 2.36 10 1 10 C-1.42857143 3.71428571 -1.42857143 3.71428571 0 0 Z " fill="#C20101" transform="translate(189,155)"/>
<path d="M0 0 C1.5625 1.25 1.5625 1.25 3 3 C2.875 5.125 2.875 5.125 2 7 C1.01 7.33 0.02 7.66 -1 8 C-0.67 5.36 -0.34 2.72 0 0 Z " fill="#004333" transform="translate(92,187)"/>
<path d="M0 0 C2.64 0 5.28 0 8 0 C8 0.66 8 1.32 8 2 C6.02 2.33 4.04 2.66 2 3 C1.34 2.01 0.68 1.02 0 0 Z " fill="#003527" transform="translate(49,160)"/>
<path d="M0 0 C0.99 0.33 1.98 0.66 3 1 C1.8553125 1.8971875 1.8553125 1.8971875 0.6875 2.8125 C-1.3483575 4.46959332 -3.1978279 6.10297674 -5 8 C-5.66 7.67 -6.32 7.34 -7 7 C-4.69 4.69 -2.38 2.38 0 0 Z " fill="#171717" transform="translate(44,43)"/>
<path d="M0 0 C2.69082872 0.17635452 5.32851446 0.61835921 8 1 C8 1.66 8 2.32 8 3 C6.35 3 4.7 3 3 3 C3 3.66 3 4.32 3 5 C1.68 4.67 0.36 4.34 -1 4 C-0.34 3.67 0.32 3.34 1 3 C0.34 2.34 -0.32 1.68 -1 1 C-0.67 0.67 -0.34 0.34 0 0 Z " fill="#320703" transform="translate(142,200)"/>
<path d="M0 0 C1.485 0.99 1.485 0.99 3 2 C3.1875 4.625 3.1875 4.625 3 7 C2.01 7 1.02 7 0 7 C0 4.69 0 2.38 0 0 Z " fill="#00442F" transform="translate(82,181)"/>
<path d="M0 0 C2.31 0.33 4.62 0.66 7 1 C6.2575 1.6496875 6.2575 1.6496875 5.5 2.3125 C3.66781808 3.99740483 3.66781808 3.99740483 4 7 C0 2.25 0 2.25 0 0 Z " fill="#001829" transform="translate(95,142)"/>
<path d="M0 0 C0.66 0 1.32 0 2 0 C2.309375 0.78375 2.61875 1.5675 2.9375 2.375 C3.92875038 4.92330128 3.92875038 4.92330128 5 7 C3.35 6.67 1.7 6.34 0 6 C0 4.02 0 2.04 0 0 Z " fill="#242424" transform="translate(225,119)"/>
<path d="M0 0 C0.33 0.66 0.66 1.32 1 2 C0.01 3.485 0.01 3.485 -1 5 C-4.625 5.1875 -4.625 5.1875 -8 5 C-5.37352812 3.24901874 -2.71224618 1.61268692 0 0 Z " fill="#2E2E2E" transform="translate(114,233)"/>
<path d="M0 0 C0.33 0 0.66 0 1 0 C1.12375 0.969375 1.2475 1.93875 1.375 2.9375 C1.684375 4.4534375 1.684375 4.4534375 2 6 C2.66 6.33 3.32 6.66 4 7 C3.67 7.66 3.34 8.32 3 9 C1.68 8.67 0.36 8.34 -1 8 C-0.67 5.36 -0.34 2.72 0 0 Z " fill="#A70201" transform="translate(163,184)"/>
<path d="M0 0 C0 1.65 0 3.3 0 5 C-1.65 4.67 -3.3 4.34 -5 4 C-1.125 0 -1.125 0 0 0 Z " fill="#0066AB" transform="translate(110,170)"/>
<path d="M0 0 C0.66 0.33 1.32 0.66 2 1 C1.67 2.98 1.34 4.96 1 7 C0.34 7 -0.32 7 -1 7 C-1.04254356 5.00045254 -1.04080783 2.99958364 -1 1 C-0.67 0.67 -0.34 0.34 0 0 Z " fill="#004035" transform="translate(64,164)"/>
<path d="M0 0 C0 2.62113708 -0.31292445 4.50935112 -1 7 C-1.66 7 -2.32 7 -3 7 C-3.33 5.35 -3.66 3.7 -4 2 C-2.68 1.34 -1.36 0.68 0 0 Z " fill="#353535" transform="translate(16,141)"/>
<path d="M0 0 C0.99 0.33 1.98 0.66 3 1 C3 2.98 3 4.96 3 7 C2.01 6.67 1.02 6.34 0 6 C0 4.02 0 2.04 0 0 Z " fill="#B2B2B2" transform="translate(234,118)"/>
</svg>
